<svg width="21" height="21" viewBox="0 0 21 21" fill="none" xmlns="http://www.w3.org/2000/svg">
<path fill-rule="evenodd" clip-rule="evenodd" d="M4.36188 1.75C3.16313 1.75 2.27675 2.79913 2.317 3.93575C2.35462 5.0295 2.30562 6.44438 1.9495 7.5985C1.59075 8.75525 0.987 9.4885 0 9.583V10.6461C0.987 10.7397 1.59162 11.473 1.94862 12.6306C2.30562 13.7847 2.35462 15.1996 2.31613 16.2925C2.27675 17.43 3.16313 18.4791 4.36188 18.4791H16.6399C17.8386 18.4791 18.725 17.43 18.6847 16.2925C18.6471 15.1996 18.6961 13.7847 19.0522 12.6306C19.4101 11.473 20.013 10.7406 21 10.6461V9.583C20.013 9.4885 19.4101 8.75525 19.0522 7.5985C18.6961 6.4435 18.6471 5.02863 18.6847 3.93575C18.725 2.79825 17.8377 1.75 16.6399 1.75H4.36188ZM14.2362 12.0479C14.2362 13.6141 13.0681 14.5635 11.13 14.5635H7.83038C7.73593 14.5635 7.64534 14.526 7.57856 14.4592C7.51177 14.3924 7.47425 14.3018 7.47425 14.2074V6.02087C7.47448 5.92658 7.5121 5.83622 7.57887 5.76962C7.64563 5.70302 7.73608 5.66562 7.83038 5.66562H11.1116C12.7278 5.66562 13.7891 6.54063 13.7891 7.8855C13.7891 8.82875 13.0751 9.67313 12.166 9.82188V9.87088C13.4041 10.0065 14.2362 10.864 14.2362 12.0479ZM10.7713 6.7935H8.89V9.45175H10.4746C11.6996 9.45175 12.3751 8.95825 12.3751 8.07625C12.3751 7.25025 11.7941 6.7935 10.7713 6.7935ZM8.89 10.5061V13.4347H10.8413C12.1161 13.4347 12.7925 12.9229 12.7925 11.9613C12.7925 10.9987 12.0977 10.5061 10.759 10.5061H8.89Z" fill="white"/>
</svg>
