<svg width="21" height="21" viewBox="0 0 21 21" fill="none" xmlns="http://www.w3.org/2000/svg">
<path d="M2.1875 10.5C2.1875 6.58175 2.1875 4.62175 3.40463 3.40463C4.62175 2.1875 6.58087 2.1875 10.5 2.1875C14.4183 2.1875 16.3782 2.1875 17.5954 3.40463C18.8125 4.62175 18.8125 6.58087 18.8125 10.5C18.8125 14.4183 18.8125 16.3782 17.5954 17.5954C16.3782 18.8125 14.4191 18.8125 10.5 18.8125C6.58175 18.8125 4.62175 18.8125 3.40463 17.5954C2.1875 16.3782 2.1875 14.4191 2.1875 10.5Z" stroke="white" stroke-width="1.5"/>
<path d="M13.5625 8.02572C12.1616 6.65809 9.88927 6.65809 8.4884 8.02572C8.15602 8.34646 7.89166 8.73087 7.71111 9.15602C7.53055 9.58116 7.4375 10.0383 7.4375 10.5002C7.4375 10.9621 7.53055 11.4193 7.71111 11.8444C7.89166 12.2696 8.15602 12.654 8.4884 12.9747C9.88927 14.3423 12.1616 14.3423 13.5625 12.9747" stroke="white" stroke-width="1.5" stroke-linecap="round"/>
</svg>
