<svg width="50" height="50" viewBox="0 0 50 50" fill="none" xmlns="http://www.w3.org/2000/svg">
<path d="M8.33073 6.25C6.01823 6.25 4.16406 8.10417 4.16406 10.4167V31.25C4.16406 32.3551 4.60305 33.4149 5.38445 34.1963C6.16585 34.9777 7.22566 35.4167 8.33073 35.4167H24.9974V45.8333L31.2474 39.5833L37.4974 45.8333V35.4167H41.6641C42.7691 35.4167 43.8289 34.9777 44.6103 34.1963C45.3917 33.4149 45.8307 32.3551 45.8307 31.25V10.4167C45.8307 9.3116 45.3917 8.25179 44.6103 7.47039C43.8289 6.68899 42.7691 6.25 41.6641 6.25H8.33073ZM24.9974 10.4167L31.2474 14.5833L37.4974 10.4167V17.7083L43.7474 20.8333L37.4974 23.9583V31.25L31.2474 27.0833L24.9974 31.25V23.9583L18.7474 20.8333L24.9974 17.7083V10.4167ZM8.33073 10.4167H18.7474V14.5833H8.33073V10.4167ZM8.33073 18.75H14.5807V22.9167H8.33073V18.75ZM8.33073 27.0833H18.7474V31.25H8.33073V27.0833Z" fill="#0E90CF"/>
</svg>
