<svg width="50" height="50" viewBox="0 0 50 50" fill="none" xmlns="http://www.w3.org/2000/svg">
<g clip-path="url(#clip0_1543_7578)">
<path fill-rule="evenodd" clip-rule="evenodd" d="M34.375 46.875C37.6902 46.875 40.8696 45.558 43.2138 43.2138C45.558 40.8696 46.875 37.6902 46.875 34.375C46.875 31.0598 45.558 27.8804 43.2138 25.5362C40.8696 23.192 37.6902 21.875 34.375 21.875C31.0598 21.875 27.8804 23.192 25.5362 25.5362C23.192 27.8804 21.875 31.0598 21.875 34.375C21.875 37.6902 23.192 40.8696 25.5362 43.2138C27.8804 45.558 31.0598 46.875 34.375 46.875ZM50 34.375C50 38.519 48.3538 42.4933 45.4235 45.4235C42.4933 48.3538 38.519 50 34.375 50C30.231 50 26.2567 48.3538 23.3265 45.4235C20.3962 42.4933 18.75 38.519 18.75 34.375C18.75 30.231 20.3962 26.2567 23.3265 23.3265C26.2567 20.3962 30.231 18.75 34.375 18.75C38.519 18.75 42.4933 20.3962 45.4235 23.3265C48.3538 26.2567 50 30.231 50 34.375Z" fill="#0891b2"/>
<path d="M29.4953 37.325C29.6422 39.1875 31.1141 40.6375 33.7547 40.8125V42.1875H34.9266V40.8031C37.6609 40.6125 39.2578 39.15 39.2578 37.0313C39.2578 35.1 38.0391 34.1062 35.8516 33.5938L34.9266 33.375V29.625C36.1016 29.7594 36.8453 30.4 37.0234 31.2875H39.0797C38.9328 29.4906 37.3922 28.0875 34.9266 27.9344V26.5625H33.7547V27.9687C31.4203 28.1969 29.8328 29.6 29.8328 31.5875C29.8328 33.3437 31.0141 34.4625 32.9797 34.9187L33.7547 35.1094V39.0844C32.5547 38.9031 31.7578 38.2406 31.5797 37.325H29.4953ZM33.7453 33.0938C32.5922 32.8281 31.9672 32.2812 31.9672 31.4625C31.9672 30.5437 32.6422 29.8562 33.7547 29.6562V33.0938H33.7453ZM35.0953 35.425C36.4984 35.75 37.1422 36.275 37.1422 37.2031C37.1422 38.2625 36.3391 38.9875 34.9266 39.1219V35.3875L35.0953 35.425Z" fill="#0891b2"/>
<path d="M3.125 0C2.2962 0 1.50134 0.32924 0.915291 0.915291C0.32924 1.50134 0 2.2962 0 3.125L0 28.125C0 28.9538 0.32924 29.7487 0.915291 30.3347C1.50134 30.9208 2.2962 31.25 3.125 31.25H15.8844C16.0677 30.1729 16.3365 29.1313 16.6906 28.125H9.375C9.375 26.4674 8.71652 24.8777 7.54442 23.7056C6.37232 22.5335 4.7826 21.875 3.125 21.875V9.375C4.7826 9.375 6.37232 8.71652 7.54442 7.54442C8.71652 6.37232 9.375 4.7826 9.375 3.125H40.625C40.625 4.7826 41.2835 6.37232 42.4556 7.54442C43.6277 8.71652 45.2174 9.375 46.875 9.375V20.4C48.0625 21.4625 49.1156 22.675 50 24.0063V3.125C50 2.2962 49.6708 1.50134 49.0847 0.915291C48.4987 0.32924 47.7038 0 46.875 0L3.125 0Z" fill="#0891b2"/>
<path d="M31.2438 15.8846L31.25 15.6252C31.2494 14.5489 30.9708 13.491 30.4413 12.554C29.9118 11.617 29.1493 10.8326 28.2276 10.2768C27.306 9.721 26.2564 9.41261 25.1806 9.38152C24.1047 9.35042 23.0391 9.59767 22.0869 10.0993C21.1347 10.601 20.3281 11.34 19.7454 12.2449C19.1627 13.1497 18.8235 14.1898 18.7607 15.2642C18.6978 16.3386 18.9136 17.4111 19.3869 18.3777C19.8603 19.3443 20.5752 20.1723 21.4625 20.7814C24.1637 18.2132 27.5691 16.5084 31.2438 15.8846Z" fill="#0891b2"/>
</g>
<defs>
<clipPath id="clip0_1543_7578">
<rect width="50" height="50" fill="white"/>
</clipPath>
</defs>
</svg>
