<svg width="21" height="21" viewBox="0 0 21 21" fill="none" xmlns="http://www.w3.org/2000/svg">
<path d="M10.4064 0C10.1141 0 9.82171 0.0639844 9.5999 0.192281L1.89995 4.63805C1.45633 4.89366 1.09375 5.52234 1.09375 6.03422V14.9259C1.09375 15.1822 1.18398 15.467 1.33016 15.7201L1.32984 15.7205C1.47585 15.9736 1.67814 16.1946 1.89995 16.3229L9.59957 20.768C10.043 21.0243 10.7693 21.0243 11.2126 20.768H11.213L18.9131 16.3229C19.1349 16.1949 19.3367 15.9736 19.4829 15.7205C19.6289 15.4673 19.7193 15.1823 19.7193 14.9259V6.03405C19.7193 5.77861 19.629 5.49347 19.4829 5.24032V5.23999C19.3367 4.98652 19.1349 4.76536 18.9131 4.63788L11.213 0.192445C10.9913 0.0639844 10.699 0 10.4064 0ZM10.4068 4.27104C12.6159 4.27104 14.6757 5.45984 15.7831 7.37346L13.0957 8.92861C12.5425 7.97114 11.5109 7.37543 10.4068 7.37543C8.69526 7.37543 7.30237 8.76832 7.30237 10.4801C7.30237 12.192 8.69526 13.5844 10.4068 13.5844C11.5117 13.5844 12.542 12.9896 13.0966 12.0315L15.7831 13.5863C14.6763 15.4996 12.6159 16.6888 10.4068 16.6888C6.98326 16.6888 4.19814 13.9035 4.19814 10.48C4.19814 7.05649 6.98326 4.27104 10.4068 4.27104ZM15.2361 9.44508H15.9253V10.1353H16.6149V10.8248H15.9253V11.5151H15.2361V10.8248H14.5459V10.1353H15.2361V9.44508ZM17.8225 9.44508H18.5129V10.1353H19.2025V10.8248H18.5129V11.5151H17.8225V10.8248H17.1327V10.1353H17.8225V9.44508Z" fill="white"/>
</svg>
