<svg width="21" height="21" viewBox="0 0 21 21" fill="none" xmlns="http://www.w3.org/2000/svg">
<path fill-rule="evenodd" clip-rule="evenodd" d="M13.2755 0H9.6215V5.1905C9.10141 5.06493 8.56745 5.00612 8.0325 5.0155C4.214 5.01463 1.75 7.26687 1.75 10.7389C1.75 14.3421 4.07313 16.219 8.53562 16.2234C10.0258 16.2234 11.4039 16.0921 13.2755 15.7596V0ZM8.51725 7.85488C8.96875 7.85488 9.32225 7.89862 9.74925 8.02987V13.4969C9.22775 13.5625 8.89875 13.5844 8.4945 13.5844C6.622 13.5844 5.60262 12.5851 5.60262 10.7756C5.60262 8.91625 6.67013 7.85488 8.51725 7.85488Z" fill="white"/>
<path d="M19.2509 13.3289V5.43813H15.6022V12.1538C15.6022 15.1174 15.4377 16.2435 14.9153 17.2165C14.4166 18.1676 13.6361 18.7915 12.0234 19.4967L15.4141 21C17.0267 20.2458 17.8072 19.5624 18.3996 18.48C19.0348 17.353 19.2509 16.0457 19.2509 13.3289ZM18.8878 0H15.2338V3.49388H18.8878V0Z" fill="white"/>
</svg>
