<svg width="50" height="50" viewBox="0 0 50 50" fill="none" xmlns="http://www.w3.org/2000/svg">
<g clip-path="url(#clip0_1543_7521)">
<path fill-rule="evenodd" clip-rule="evenodd" d="M50 13.5424C50.0028 15.0477 49.7079 16.5386 49.1322 17.9295C48.5566 19.3203 47.7116 20.5836 46.6458 21.6466C44.7718 23.5215 42.3057 24.6886 39.6676 24.9491C37.0295 25.2096 34.3827 24.5473 32.1782 23.0751C29.9737 21.603 28.3478 19.4119 27.5776 16.8754C26.8074 14.3389 26.9405 11.6137 27.9543 9.16433C28.9681 6.71493 30.7997 4.69281 33.1373 3.44249C35.4748 2.19218 38.1735 1.79103 40.7736 2.30739C43.3737 2.82376 45.7144 4.22569 47.3968 6.27432C49.0791 8.32296 49.9991 10.8915 50 13.5424ZM36.4583 13.5424V7.29244H40.625V12.3633L44.8229 14.882L42.6771 18.4529L37.4688 15.3279L36.4583 14.7237V13.5424ZM9.19792 30.7299C8.13981 30.7299 7.12505 31.1503 6.37685 31.8985C5.62866 32.6467 5.20833 33.6614 5.20833 34.7195V35.4174H0V34.7195C3.9936e-06 33.3481 0.306702 31.9939 0.897643 30.7563C1.48858 29.5187 2.34881 28.4289 3.41534 27.5667C4.48188 26.7045 5.72773 26.0917 7.0617 25.7731C8.39566 25.4546 9.78397 25.4384 11.125 25.7258L25.025 28.7049L27.0833 29.1466V33.9758L36.475 31.0862C37.677 30.7165 38.949 30.6341 40.1886 30.8455C41.4283 31.0569 42.6011 31.5563 43.6126 32.3034C44.6242 33.0505 45.4463 34.0246 46.0129 35.1472C46.5795 36.2699 46.8748 37.5099 46.875 38.7674V41.4924L45.0542 42.0674L25.2625 48.3174L24.8812 48.4383H1.04167V43.2299H24.0771L41.4729 37.7362C41.2119 37.072 40.7099 36.5308 40.0673 36.2207C39.4246 35.9105 38.6886 35.8543 38.0062 36.0633L25.6042 39.8799C25.1178 40.0277 24.6125 40.1035 24.1042 40.1049H14.0625V34.8966H21.875V33.3549L10.0333 30.8174C9.75852 30.7602 9.47863 30.7309 9.19792 30.7299Z" fill="#1d4ed8"/>
</g>
<defs>
<clipPath id="clip0_1543_7521">
<rect width="50" height="50" fill="white"/>
</clipPath>
</defs>
</svg>
