<svg width="77" height="77" viewBox="0 0 77 77" fill="none" xmlns="http://www.w3.org/2000/svg">
<g clip-path="url(#clip0_1563_7567)">
<path fill-rule="evenodd" clip-rule="evenodd" d="M39.8632 32.9933L40.0556 30.2397C40.1104 29.1483 39.8339 28.0659 39.2624 27.1346C38.6908 26.2032 37.851 25.4664 36.8532 25.021C34.2603 24.2082 31.5656 23.7657 28.8489 23.7068C26.8914 23.4649 24.9115 23.4649 22.9539 23.7068C21.4313 23.9151 20.0048 24.5723 18.8572 25.598C18.1098 26.3256 17.5774 27.245 17.3186 28.2554C16.9783 29.9186 16.8597 31.6195 16.9659 33.3138C13.7636 33.3138 10.3689 33.6023 7.07039 33.6023C6.82384 33.6023 6.58739 33.7002 6.41306 33.8746C6.23872 34.0489 6.14078 34.2854 6.14078 34.5319C6.14078 34.7785 6.23872 35.0149 6.41306 35.1893C6.58739 35.3636 6.82384 35.4615 7.07039 35.4615C13.8918 35.9424 20.7453 36.2629 27.6308 36.3591H48.031C51.4257 36.3591 53.9228 36.7117 56.8687 37.029C57.342 39.0745 57.4934 41.1813 57.3175 43.2735C57.4122 45.6106 56.6224 47.8976 55.1056 49.6782C53.981 50.1073 52.7896 50.3352 51.5859 50.3513L46.2038 50.8963L35.8948 51.7297V50.6078C35.7246 49.5753 35.2723 48.61 34.5878 47.8185C33.9033 47.0271 33.0132 46.4404 32.016 46.1232C31.0215 45.8115 29.9556 45.8102 28.9603 46.1194C27.965 46.4287 27.0876 47.0338 26.4448 47.8542C25.6001 48.9309 25.0579 50.2134 24.8741 51.5694V51.9221C22.5084 51.7297 17.4788 51.4733 12.9622 50.9283C11.3701 50.7745 9.79084 50.5287 8.22439 50.1911C7.4042 50.0819 6.61707 49.7977 5.91639 49.3576C4.51877 48.2677 3.60839 46.665 3.38721 44.9083C3.11479 41.943 3.16854 38.9568 3.54749 36.0033C3.58205 35.8748 3.58862 35.7403 3.56674 35.609C3.54487 35.4778 3.49507 35.3527 3.4207 35.2424C3.34634 35.132 3.24914 35.0389 3.13569 34.9693C3.02224 34.8998 2.89517 34.8554 2.76308 34.8392C2.631 34.8229 2.49697 34.8353 2.37005 34.8753C2.24314 34.9154 2.1263 34.9822 2.02744 35.0713C1.92858 35.1604 1.85001 35.2696 1.79702 35.3917C1.74404 35.5138 1.71788 35.6458 1.72032 35.7789C0.940029 38.8699 0.522628 42.0412 0.476562 45.2289C0.505413 47.7132 1.49272 50.0885 3.23334 51.858C5.31695 53.1722 7.71791 53.8999 10.1798 53.9736C14.9411 54.2365 19.7024 54.2365 24.4637 53.9736C24.5065 54.9502 24.6026 55.9215 24.7522 56.8875C24.7843 57.1312 24.9085 57.3533 25.0993 57.5083C25.29 57.6633 25.5329 57.7394 25.778 57.7209C26.0132 57.6889 26.2273 57.5681 26.3763 57.3834C26.5253 57.1986 26.5979 56.9638 26.5794 56.7272C26.5039 55.3896 26.5684 54.0477 26.7717 52.7235C26.9256 51.6015 27.4545 50.5629 28.2751 49.7775C28.5713 49.471 28.9533 49.261 29.3708 49.1752C29.7884 49.0894 30.2221 49.1318 30.6152 49.2967C31.0052 49.4359 31.349 49.6802 31.6087 50.0027C31.8684 50.3252 32.0337 50.7132 32.0866 51.1239C32.0866 51.6688 32.2468 52.2458 32.3109 52.8549C32.4071 53.7396 32.4071 54.6243 32.3109 55.5091C32.1994 56.3984 31.8929 57.2522 31.4134 58.0094C30.9903 58.5447 30.4517 58.9807 29.8427 59.2916C29.6236 59.4507 29.3719 59.5591 29.1058 59.609C28.8397 59.6589 28.5658 59.649 28.304 59.5801C28.153 59.4902 28.022 59.3702 27.9193 59.2275C27.7454 58.9474 27.586 58.6585 27.4417 58.362C27.3474 58.099 27.153 57.884 26.9007 57.7639C26.6485 57.6438 26.359 57.6283 26.0954 57.7209C25.9699 57.7762 25.8568 57.8561 25.7628 57.9559C25.6687 58.0557 25.5956 58.1733 25.5478 58.3018C25.5 58.4303 25.4784 58.5671 25.4844 58.7041C25.4903 58.841 25.5237 58.9754 25.5825 59.0993C25.7406 59.593 25.9543 60.062 26.2236 60.5065C26.48 60.8912 26.8006 61.2118 27.1853 61.4682C27.667 61.7449 28.203 61.914 28.7564 61.9638C29.3098 62.0136 29.8674 61.943 30.3908 61.7567C31.6989 61.4006 32.8835 60.6908 33.8144 59.7052C34.7183 58.6505 35.337 57.3843 35.6095 56.022C35.7868 55.2441 35.883 54.4545 35.898 53.6531C39.2606 53.6531 44.9921 54.0377 49.6017 53.6531C52.2591 53.7064 54.892 53.1355 57.2886 51.9862C59.0357 50.0308 60.0037 47.4984 60.0134 44.8795C60.8757 32.9644 58.1862 33.894 39.8664 32.9965M25.3934 32.9965L18.7963 33.2529C18.8946 32.0604 19.0976 30.8861 19.4054 29.73C19.5849 28.9927 20.0016 28.326 20.5914 27.8387C21.396 27.3419 22.3288 27.0758 23.2777 27.0726C25.0012 26.9946 26.7282 27.0805 28.4354 27.329H31.6378C32.9969 27.2489 34.3593 27.3899 35.6736 27.7458C36.2568 27.9271 36.7711 28.2815 37.1483 28.7618C37.5256 29.2421 37.748 29.8257 37.786 30.4352V32.8714C33.6562 32.7483 29.5238 32.7376 25.3934 32.8394V32.9965Z" fill="#0E90CF"/>
<path fill-rule="evenodd" clip-rule="evenodd" d="M54.6623 54.5152C54.5275 54.5109 54.3933 54.5332 54.2672 54.5808C54.1411 54.6285 54.0256 54.7005 53.9274 54.7928C53.8291 54.8851 53.75 54.9958 53.6946 55.1187C53.6392 55.2416 53.6086 55.3741 53.6044 55.5089L52.9633 67.2284C53.0114 68.3343 52.9152 69.4434 52.6748 70.5269C52.5761 71.0673 52.3064 71.5617 51.9055 71.9373C50.9598 72.5977 49.8539 73.0048 48.7063 73.1234C46.7345 73.4262 44.7421 73.5752 42.7472 73.569H35.0026C28.8832 73.3446 22.7349 72.9279 16.5867 72.8958C14.1846 73.0433 11.7826 73.0433 9.38056 72.8958C8.03798 72.8654 6.7431 72.392 5.69738 71.5495C5.34883 71.1832 5.13421 70.7099 5.08832 70.2064C4.98141 69.1416 4.98141 68.0688 5.08832 67.004V54.9639C5.13874 54.7211 5.09276 54.4682 4.96012 54.2587C4.82747 54.0492 4.61855 53.8995 4.37752 53.8412C4.13649 53.7829 3.88225 53.8207 3.66853 53.9464C3.45482 54.0722 3.29838 54.2761 3.2323 54.5152L2.68736 66.7796C2.52708 68.0255 2.48434 69.2746 2.55914 70.5269C2.64569 71.5944 3.07202 72.6041 3.77725 73.4119C4.85111 74.4954 6.21988 75.2423 7.71688 75.5532C10.666 76.0725 13.66 76.2873 16.6508 76.1943C22.7349 76.1943 28.8511 76.8034 34.9705 76.9316H42.9748C45.1257 76.8611 47.2702 76.6111 49.3795 76.1943C50.9878 75.8975 52.4963 75.2033 53.7679 74.1748C54.5789 73.3959 55.1142 72.3733 55.3066 71.2642C55.5203 69.9392 55.5951 68.6036 55.531 67.2572V55.6339C55.5587 55.3715 55.4843 55.1084 55.3231 54.8995C55.1619 54.6905 54.9263 54.5517 54.6655 54.5119" fill="#0E90CF"/>
<path fill-rule="evenodd" clip-rule="evenodd" d="M75.5118 16.5652C74.6142 14.5137 73.2038 12.4332 72.3062 10.7696C71.7292 9.64761 71.1843 8.10895 70.4502 6.86199C70.0508 6.15609 69.5423 5.51778 68.9436 4.97071C67.9001 4.20179 66.6973 3.67706 65.4239 3.43525C62.9877 2.8903 59.8815 2.76208 58.3781 2.44152C55.9098 1.92864 53.5088 1.1593 51.0438 0.646413C49.9042 0.376322 48.7475 0.184609 47.5818 0.0726186C46.5817 -0.021602 45.575 -0.021602 44.5749 0.0726186C43.9242 0.13673 43.3023 0.383558 42.7798 0.777841C42.1814 1.27229 41.7828 1.96709 41.6579 2.73323C41.2732 4.3328 41.2412 6.95815 41.0168 7.82365C40.5445 9.46062 39.9472 11.0506 39.2249 12.5935C38.0709 14.9656 36.7277 17.2384 35.3814 19.447C35.3155 19.5457 35.2699 19.6565 35.2471 19.773C35.2243 19.8895 35.2249 20.0093 35.2487 20.1256C35.2726 20.2419 35.3192 20.3523 35.386 20.4504C35.4528 20.5485 35.5384 20.6324 35.6379 20.6972C35.8423 20.8319 36.0916 20.8805 36.3317 20.8325C36.5717 20.7845 36.7832 20.6437 36.9201 20.4407C38.3946 18.2289 39.9012 15.9562 41.1803 13.5552C42.0458 11.9396 42.7724 10.2641 43.36 8.52888L44.5108 3.01852H47.2965C48.3137 3.12965 49.317 3.32198 50.3065 3.59552C52.7748 4.20458 55.1757 5.03802 57.6087 5.64708C58.923 5.93558 61.4522 6.09586 63.6929 6.51258C64.3212 6.61516 64.9409 6.76368 65.5521 6.95815C65.2636 7.63132 64.9751 8.30449 64.6545 8.9456C64.0775 10.1637 63.4685 11.3145 62.7953 12.4653C62.1222 13.6161 61.7695 14.1322 61.3528 14.9656C60.9458 15.751 60.7057 16.6121 60.6476 17.4948C60.6169 18.3986 60.9004 19.2851 61.4498 20.0034C61.9992 20.7217 62.7805 21.2274 63.6608 21.4344L65.5521 21.8512H69.0077L73.1108 21.2742C73.1108 21.5306 73.1108 21.8191 72.8864 22.1076C72.4056 23.5469 71.7004 25.0856 71.3798 26.1081C70.1574 30.3254 68.6812 34.4649 66.9593 38.504C65.7928 41.12 64.4331 43.6455 62.8915 46.0595C62.8151 46.173 62.7619 46.3004 62.7351 46.4346C62.7082 46.5687 62.7082 46.7068 62.735 46.8409C62.7618 46.975 62.815 47.1025 62.8914 47.216C62.9677 47.3295 63.0658 47.4267 63.18 47.502C63.3501 47.6178 63.5512 47.6797 63.757 47.6797C63.9628 47.6797 64.1638 47.6178 64.334 47.502C64.4497 47.4276 64.5481 47.3292 64.6225 47.2135C66.3321 44.7645 67.8259 42.1915 69.1039 39.4945C71.0398 35.5026 72.7301 31.3961 74.1654 27.198C74.5821 26.012 75.5438 24.1848 76.0567 22.5532C76.3664 21.6699 76.4971 20.7339 76.4414 19.7996C76.3008 18.6798 75.9872 17.5887 75.5118 16.5652ZM68.9115 19.2899L66.0618 18.9694L64.9398 18.5527C64.427 18.3283 64.1385 18.168 64.1385 17.8474C64.2026 17.2288 64.3885 16.6293 64.6834 16.0844C65.036 15.3471 65.3886 14.5457 65.6771 13.8116C65.9656 13.0744 66.4144 11.728 66.735 10.6061C67.0555 9.48734 67.1517 9.13473 67.344 8.40065C67.344 8.56093 67.5684 8.72121 67.6646 8.91354C68.2416 10.0675 68.7544 11.3466 69.2673 12.1127C69.7802 12.882 71.2195 15.3182 72.1171 16.8537C72.4505 17.4734 72.739 18.1146 72.9826 18.777L68.9115 19.2899ZM20.5557 22.4891C20.5163 22.6047 20.501 22.7272 20.5106 22.849C20.5202 22.9707 20.5546 23.0893 20.6116 23.1973C20.6686 23.3053 20.7471 23.4006 20.8422 23.4773C20.9373 23.5539 21.0471 23.6103 21.1648 23.6431C21.2903 23.7129 21.4313 23.7504 21.575 23.7522C21.7187 23.7539 21.8606 23.7198 21.9878 23.653C22.115 23.5862 22.2236 23.4888 22.3038 23.3695C22.384 23.2503 22.4332 23.1129 22.447 22.9699C23.3036 20.8093 23.9363 18.5665 24.3351 16.2767C24.6428 14.0029 24.8351 11.7184 24.9121 9.42323C24.9121 8.94239 24.3992 7.37167 24.3351 6.41321C27.8856 6.58664 31.4243 6.95046 34.9358 7.5031C35.2077 7.56048 35.4912 7.50859 35.7252 7.35864C35.9591 7.20868 36.1246 6.97271 36.186 6.70171C36.2197 6.48858 36.1873 6.27025 36.0934 6.07602C35.9994 5.88178 35.8483 5.72092 35.6603 5.61503C35.5369 5.54278 35.3989 5.49898 35.2564 5.4868C31.6341 4.47059 27.9553 3.66783 24.2389 3.08264C23.73 3.00381 23.2094 3.05671 22.7268 3.23629C22.2442 3.41586 21.8157 3.71612 21.4821 4.10841C21.2407 4.60885 21.1106 5.15565 21.1007 5.71119C21.1007 6.89404 21.293 8.6571 21.1007 9.35911C21.2802 11.9962 21.2802 14.6333 21.1007 17.2704C21.0494 19.0228 20.8677 20.7623 20.5557 22.4891Z" fill="#0E90CF"/>
<path fill-rule="evenodd" clip-rule="evenodd" d="M50.6857 14.1971C51.5319 14.5647 52.3974 14.8852 53.2822 15.1588C54.6253 15.6076 55.9716 15.8961 57.2506 16.3769C57.4788 16.5157 57.7509 16.5631 58.0125 16.5096C58.2741 16.4561 58.5058 16.3056 58.6611 16.0884C58.7283 15.9689 58.7708 15.8371 58.7862 15.7008C58.8016 15.5646 58.7895 15.4267 58.7506 15.2952C58.7118 15.1637 58.6469 15.0413 58.56 14.9353C58.473 14.8293 58.3657 14.7418 58.2444 14.6779C57.1215 13.7963 55.9319 13.0032 54.6862 12.3058C54.162 12.0004 53.6167 11.7326 53.0546 11.5044C52.4838 11.2939 51.9065 11.1015 51.3236 10.9274C49.9163 10.5748 48.5411 10.4498 47.1628 10.2254C46.9456 10.1866 46.7216 10.2263 46.531 10.3375C46.3404 10.4486 46.1956 10.6239 46.1223 10.832C46.0491 11.0401 46.0523 11.2675 46.1313 11.4735C46.2103 11.6795 46.3601 11.8507 46.5537 11.9564C48.0603 12.5975 49.2111 13.4951 50.6857 14.1971ZM43.1911 18.6496C43.1707 18.8853 43.2379 19.1202 43.3798 19.3095C43.5218 19.4987 43.7285 19.629 43.9604 19.6754C45.5204 20.199 47.0474 20.807 48.5411 21.4994C49.5883 21.9182 50.6557 22.2815 51.7435 22.5893C53.5386 23.1663 55.3626 23.5477 57.2506 23.9644C57.3765 24.0151 57.5115 24.0395 57.6472 24.036C57.7829 24.0325 57.9164 24.0013 58.0395 23.9442C58.1627 23.8872 58.2728 23.8055 58.3632 23.7042C58.4535 23.6029 58.5222 23.4842 58.5649 23.3554C58.616 23.2272 58.6407 23.0901 58.6376 22.9522C58.6345 22.8143 58.6035 22.6784 58.5467 22.5527C58.4898 22.427 58.4082 22.3141 58.3067 22.2207C58.2052 22.1273 58.0858 22.0553 57.9559 22.0091C56.3851 21.2397 54.9747 20.3774 53.4713 19.6401C52.4422 19.1397 51.3705 18.732 50.2689 18.422C48.3368 17.9844 46.3575 17.7906 44.3771 17.845C44.2459 17.8003 44.106 17.7865 43.9686 17.8049C43.8311 17.8232 43.6998 17.8732 43.5848 17.9508C43.4699 18.0285 43.3746 18.1317 43.3062 18.2524C43.2379 18.3731 43.1985 18.5111 43.1911 18.6496Z" fill="#0E90CF"/>
</g>
<defs>
<clipPath id="clip0_1563_7567">
<rect width="76.9333" height="76.9333" fill="white"/>
</clipPath>
</defs>
</svg>
