<svg width="21" height="28" viewBox="0 0 21 28" fill="none" xmlns="http://www.w3.org/2000/svg">
<g clip-path="url(#clip0_2420_7676)">
<path d="M6.44927 21.4733C6.44927 21.4733 5.41818 22.0895 7.1831 22.298C9.32131 22.5486 10.414 22.5127 12.7704 22.0544C12.7704 22.0544 13.3899 22.4536 14.255 22.7993C8.97287 25.1257 2.30037 22.6645 6.44927 21.4733ZM5.80381 18.4375C5.80381 18.4375 4.64732 19.3172 6.41357 19.5049C8.69763 19.7471 10.5014 19.7669 13.6226 19.1493C13.6226 19.1493 14.0544 19.599 14.7332 19.845C8.3467 21.7641 1.23334 19.9963 5.80381 18.4375Z" fill="white"/>
<path d="M11.2485 13.2862C12.55 14.826 10.9065 16.2117 10.9065 16.2117C10.9065 16.2117 14.2113 14.4586 12.6936 12.2632C11.2761 10.216 10.1889 9.19863 16.0739 5.69141C16.0739 5.69141 6.83652 8.06223 11.2485 13.2862Z" fill="white"/>
<path d="M18.2381 23.7179C18.2381 23.7179 19.0011 24.364 17.3977 24.8638C14.3488 25.813 4.70767 26.0996 2.02939 24.9016C1.06666 24.4713 2.87213 23.874 3.44002 23.7486C4.03228 23.6166 4.3708 23.6413 4.3708 23.6413C3.30009 22.8661 -2.54975 25.1632 1.39939 25.8209C12.1692 27.6157 21.0316 25.0128 18.2381 23.7179ZM6.95181 15.2913C6.95181 15.2913 2.04783 16.4883 5.21525 16.9229C6.55259 17.1069 9.21861 17.0653 11.702 16.8514C13.7315 16.6756 15.7694 16.3015 15.7694 16.3015C15.7694 16.3015 15.0538 16.6165 14.536 16.9797C9.55603 18.3257 -0.0644373 17.6996 2.70517 16.3228C5.04744 15.1593 6.95181 15.2913 6.95181 15.2913ZM15.7492 20.3445C20.8117 17.6412 18.471 15.0434 16.8372 15.3934C16.4367 15.479 16.2582 15.5532 16.2582 15.5532C16.2582 15.5532 16.4069 15.314 16.6908 15.2104C19.9228 14.0427 22.4085 18.6543 15.6474 20.4807C15.6474 20.4808 15.7258 20.4089 15.7492 20.3445Z" fill="white"/>
<path d="M12.6905 0.0313303C12.6905 0.0313303 15.4941 2.91348 10.0313 7.34516C5.65077 10.9002 9.03242 12.9272 10.0295 15.2431C7.47249 12.8724 5.59593 10.7853 6.85492 8.84299C8.70265 5.99159 13.8216 4.60928 12.6905 0.0313303Z" fill="white"/>
<path d="M7.43977 27.671C12.2991 27.9907 19.761 27.4937 19.9377 25.1309C19.9377 25.1309 19.598 26.0267 15.9218 26.738C11.7743 27.54 6.65898 27.4464 3.625 26.9323C3.62508 26.9323 4.24602 27.4606 7.43977 27.671Z" fill="white"/>
</g>
<defs>
<clipPath id="clip0_2420_7676">
<rect width="20.5523" height="27.7778" fill="white"/>
</clipPath>
</defs>
</svg>
