<svg width="83" height="83" viewBox="0 0 83 83" fill="none" xmlns="http://www.w3.org/2000/svg">
<g clip-path="url(#clip0_1562_7549)">
<path fill-rule="evenodd" clip-rule="evenodd" d="M75.2432 34.9279C74.2767 35.9634 69.1065 41.8274 68.3472 42.8594C67.5879 43.8948 66.5524 45.0683 65.693 46.3108C63.7055 48.9896 61.796 51.7254 59.9671 54.5149C59.8673 54.64 59.7941 54.7841 59.7521 54.9385C59.7101 55.0929 59.7001 55.2542 59.7227 55.4126C59.7454 55.571 59.8001 55.7231 59.8837 55.8596C59.9673 55.996 60.0779 56.1139 60.2087 56.2061C60.4607 56.4021 60.7801 56.4903 61.097 56.4515C61.4139 56.4127 61.7026 56.25 61.8999 55.999C64.1433 53.4449 66.5559 51.0669 68.7959 48.5508C70.3145 46.8596 75.6918 40.4123 77.1414 38.6866C78.5911 36.9608 77.5211 32.4809 75.2432 34.9279Z" fill="#0E90CF"/>
<path fill-rule="evenodd" clip-rule="evenodd" d="M81.7964 25.1369C81.7624 24.841 81.6202 24.5681 81.3973 24.3707C81.1743 24.1732 80.8862 24.065 80.5884 24.067C80.4285 24.0622 80.2692 24.0902 80.1205 24.1492C79.9718 24.2082 79.8367 24.297 79.7236 24.4102C79.6104 24.5233 79.5216 24.6584 79.4626 24.8071C79.4036 24.9558 79.3756 25.115 79.3804 25.275C79.3804 27.4839 79.622 36.3783 79.553 37.5138C79.4839 39.1118 79.1975 40.6891 78.6901 42.2077C78.4285 42.8845 78.0565 43.5131 77.5891 44.0681C76.7607 45.1035 75.7598 46.0699 74.897 46.9673L67.5212 55.1023C64.0698 58.9334 61.174 63.2408 57.7951 67.103C57.0013 67.9658 56.1039 68.7252 55.241 69.5535C55.4338 67.6961 55.526 65.8296 55.5171 63.9622V61.308C55.5171 60.4452 55.2755 59.5512 55.103 58.7229C54.7578 57.0317 54.2435 55.4475 53.7949 53.7908C57.0737 49.7561 60.5183 45.8939 63.8282 41.8937C65.9336 39.4121 67.9009 36.8615 69.9338 34.3419C72.9711 30.5488 75.9324 26.6866 79.0387 22.928C80.7989 20.9607 80.1087 20.3739 79.729 20.0978C78.281 18.8937 76.6647 17.9077 74.9315 17.171C72.4873 16.1204 69.9632 15.2663 67.3832 14.6169L49.415 10.2716C46.8025 9.63093 44.1353 9.23803 41.4491 9.09807C39.4233 8.9844 37.3954 9.2778 35.485 9.96093C34.2378 10.5339 33.0874 11.2587 32.0335 12.1353C30.4148 13.3088 29.0687 14.6894 27.6571 15.7904C25.5517 17.6887 23.5154 19.6905 21.6205 21.758C18.7593 24.8263 16.0706 28.0327 13.344 31.2736C11.135 33.8622 8.69142 36.2057 6.65507 38.8598C5.73588 40.0563 4.91629 41.3261 4.20455 42.6564C4.15369 42.8253 4.15369 43.0053 4.20455 43.1742C3.65232 43.6274 3.18177 44.1555 2.79291 44.7584C1.91586 46.1041 1.2631 47.5833 0.860103 49.1382C-0.286701 52.4909 -0.286701 56.1296 0.860103 59.4822C2.09557 62.7123 4.25516 65.507 7.06925 67.5172C9.55428 69.2429 12.3741 70.4164 15.3458 70.9686C19.4875 71.6209 23.6741 71.9212 27.8642 71.8625C31.5193 71.8625 36.1753 72.2077 40.8968 72.5528C45.6253 72.898 50.2088 73.3121 53.8639 73.7608C53.8639 73.7608 58.6579 69.8952 59.5898 68.9978C63.2449 65.5498 66.4858 61.4461 70.1754 57.9636C71.2799 56.9281 72.3498 55.8582 73.3507 54.7572C74.8659 53.135 76.2775 51.3092 77.7617 49.7906C78.7784 48.7035 79.7238 47.5517 80.5919 46.3426C81.2269 45.3969 81.732 44.3856 82.107 43.3088C82.6247 41.4105 82.8698 39.45 82.8318 37.4827C82.8318 33.3065 81.9345 28.792 81.7964 25.1369ZM9.55083 39.3085C11.4836 37.2377 13.6926 35.3083 15.6564 33.2064C18.5111 30.1882 21.4199 27.2218 24.3817 24.3086C26.311 22.4103 28.3129 20.6155 30.4493 18.8242C31.6918 17.7543 32.9689 16.4427 34.3805 15.3762C35.1628 14.7205 36.0142 14.1682 36.9346 13.7196C38.3085 13.2536 39.7588 13.0545 41.2075 13.1328C43.6925 13.211 46.1522 13.4987 48.5866 13.9957L66.6929 17.4471C69.148 17.9533 71.5502 18.6436 73.8995 19.518C74.9902 20.0012 76.0371 20.5753 77.0403 21.2402C73.5889 24.6882 70.31 27.8946 67.1071 31.4116C65.761 32.9303 64.4149 34.4834 63.1034 36.0676C61.7953 37.6553 60.5183 39.2775 59.3482 40.9307C49.6911 54.343 55.8968 52.5172 44.5864 50.1012C35.485 48.2029 26.5871 44.7584 17.3097 43.3433C15.0662 43.0326 12.381 42.1698 9.82695 41.9627C8.97073 41.9435 8.11483 42.0129 7.27288 42.1698C7.98388 41.1781 8.7432 40.2243 9.55083 39.3085ZM41.2075 69.5155C36.8604 69.0334 32.5037 68.6422 28.1403 68.3421C24.1477 68.2499 20.1691 67.8355 16.2432 67.103C13.8345 66.6093 11.5625 65.5964 9.58535 64.1348C7.40222 62.5935 5.73307 60.4313 4.79475 57.9291C3.96462 55.433 3.96462 52.7353 4.79475 50.2393C5.06166 49.2705 5.42981 48.3398 5.89921 47.447C6.15685 46.8423 6.63774 46.3602 7.24182 46.101C8.38079 45.8732 9.55428 45.8732 10.6898 46.101C12.8987 46.3426 15.1387 46.8948 16.999 47.1019C26.2075 48.0338 35.1398 51.002 44.2447 52.5517C46.5227 52.9728 48.8213 53.2604 51.1407 53.4146C51.0026 55.6327 51.0026 57.8508 51.1407 60.069C51.2949 61.3805 51.5135 62.6794 51.7965 63.9656C53.2461 73.2397 55.7622 71.0687 41.2075 69.5155Z" fill="#0E90CF"/>
<path fill-rule="evenodd" clip-rule="evenodd" d="M45.7277 56.31C41.9111 54.9396 38.0197 53.7873 34.0722 52.8586C30.6622 52.1081 27.185 51.7046 23.6937 51.654C19.6296 51.503 15.5599 51.6646 11.5205 52.1372C11.2001 52.1372 10.8929 52.2645 10.6663 52.4911C10.4398 52.7176 10.3125 53.0249 10.3125 53.3452C10.3125 53.6656 10.4398 53.9729 10.6663 54.1994C10.8929 54.426 11.2001 54.5533 11.5205 54.5533C14.8983 54.6131 18.2658 54.8432 21.6229 55.2435C24.7292 55.5507 27.8665 56.0684 30.9694 56.4481C35.7634 57.0694 40.4884 57.5526 45.072 58.4499C45.2057 58.4913 45.3467 58.5041 45.4858 58.4876C45.6248 58.4711 45.7588 58.4256 45.8792 58.354C45.9995 58.2824 46.1035 58.1864 46.1845 58.0722C46.2654 57.9579 46.3214 57.8279 46.349 57.6906C46.3989 57.5592 46.4225 57.4192 46.4183 57.2786C46.4141 57.1381 46.3822 56.9998 46.3245 56.8716C46.2668 56.7433 46.1844 56.6278 46.082 56.5314C45.9796 56.4351 45.8592 56.3598 45.7277 56.31ZM45.072 63.8273C41.464 62.6134 37.7918 61.5995 34.0722 60.79C32.4846 60.4794 30.8624 60.2378 29.2437 60.0307C27.6215 59.8236 26.0028 59.7201 24.3495 59.6855C20.5434 59.533 16.7319 59.5906 12.9321 59.8581C12.7751 59.8581 12.6196 59.8895 12.475 59.9506C12.3303 60.0117 12.1993 60.1013 12.0899 60.2139C11.9805 60.3266 11.8948 60.4601 11.8379 60.6064C11.781 60.7528 11.754 60.9091 11.7587 61.0661C11.7585 61.3806 11.881 61.6828 12.1002 61.9083C12.3193 62.1339 12.6178 62.2651 12.9321 62.2741C15.0375 62.2741 17.1429 62.6193 19.3139 62.8609C21.4883 63.1025 23.4866 63.4476 25.6231 63.6892L31.9013 64.4831C36.2432 64.9317 40.485 65.2424 44.5888 65.8981C44.7247 65.9346 44.8666 65.9439 45.0062 65.9255C45.1457 65.9071 45.2803 65.8613 45.4021 65.7907C45.524 65.7202 45.6307 65.6263 45.7162 65.5144C45.8017 65.4025 45.8642 65.2749 45.9003 65.1388C45.9535 64.856 45.8976 64.5635 45.7439 64.3202C45.5903 64.0769 45.3502 63.9008 45.072 63.8273ZM32.1084 26.7208C32.8216 27.4755 33.4889 28.2694 34.1102 29.1023C34.5198 29.6362 34.8868 30.1999 35.2112 30.7935C35.3028 31.0144 35.458 31.203 35.6572 31.3354C35.8563 31.4677 36.0904 31.5378 36.3295 31.5367C36.5686 31.5356 36.802 31.4634 36.9999 31.3292C37.1978 31.195 37.3513 31.0049 37.4408 30.7832C37.5632 30.4877 37.5669 30.1564 37.4512 29.8582C37.1664 28.9238 36.8087 28.0133 36.3812 27.135C35.9671 26.2721 35.5184 25.4783 35.0697 24.6155L37.7963 23.7906C38.4521 23.5835 39.1194 23.4109 39.7982 23.2728C40.4677 23.1394 41.1465 23.0589 41.8345 23.0312C41.975 23.0426 42.1164 23.0261 42.2505 22.9828C42.3847 22.9395 42.509 22.8702 42.6164 22.7789C42.7237 22.6875 42.812 22.5759 42.8763 22.4505C42.9405 22.325 42.9794 22.1881 42.9907 22.0476C43.0021 21.9071 42.9856 21.7657 42.9423 21.6316C42.899 21.4974 42.8297 21.3731 42.7384 21.2657C42.647 21.1584 42.5354 21.0701 42.41 21.0058C42.2845 20.9416 42.1476 20.9027 42.0071 20.8913C41.2206 20.7442 40.4249 20.652 39.6256 20.6152H37.2441L33.4164 20.9949L32.2775 21.1675H31.7252C29.9685 21.4091 29.9339 23.4109 29.9339 23.4454C30.0133 24.0391 30.2239 24.6051 30.5552 25.1021C31.1074 25.6198 31.6942 26.2031 32.1084 26.7208ZM52.5547 25.4127C52.4555 25.5092 52.3767 25.6246 52.3229 25.7521C52.2691 25.8795 52.2414 26.0164 52.2414 26.1548C52.2414 26.2931 52.2691 26.4301 52.3229 26.5575C52.3767 26.685 52.4555 26.8004 52.5547 26.8969C53.314 27.693 54.0043 28.5432 54.6256 29.4475C55.0742 30.124 55.4654 30.8361 55.799 31.5839H55.592C54.7636 31.7105 53.9468 31.8945 53.1414 32.1361C51.4502 32.6539 49.6934 33.3787 48.1437 33.7583C47.9089 33.7909 47.6889 33.8919 47.511 34.0486C47.3332 34.2054 47.2054 34.411 47.1435 34.6399C47.0817 34.8687 47.0886 35.1108 47.1634 35.3357C47.2381 35.5607 47.3774 35.7587 47.5639 35.9051C47.8143 36.1047 48.132 36.1999 48.4509 36.1709L55.8681 35.5151C56.7125 35.5519 57.5512 35.4944 58.3842 35.3425C59.1203 35.1909 59.7868 34.8031 60.2825 34.2381C60.4882 33.9787 60.6349 33.6776 60.7124 33.3557C60.7899 33.0338 60.7963 32.6989 60.7312 32.3743C60.446 31.6395 60.0875 30.9353 59.6612 30.2724C59.0433 29.4301 58.3501 28.6457 57.5903 27.9288C56.5248 26.929 55.3707 26.028 54.1423 25.2367C54.0304 25.1357 53.8984 25.0594 53.7549 25.013C53.6114 24.9666 53.4598 24.951 53.3099 24.9673C53.1599 24.9836 53.0152 25.0314 52.885 25.1076C52.7549 25.1837 52.6423 25.29 52.5547 25.4127ZM36.3122 34.9284C36.1748 35.0719 36.0739 35.2464 36.0179 35.4371C35.9618 35.6277 35.9524 35.829 35.9902 36.0241C36.0281 36.2192 36.1122 36.4024 36.2355 36.5582C36.3588 36.7141 36.5176 36.8381 36.6988 36.9198C36.9176 37.0129 37.1594 37.0374 37.3924 36.9899C37.6254 36.9424 37.8385 36.8253 38.0034 36.6541L44.8994 31.6875C46.0729 30.6175 47.2809 29.5821 48.3508 28.4431C49.973 26.7553 51.3846 24.9986 53.0379 23.1693C53.2004 23.115 53.3475 23.0225 53.4669 22.8996C53.5862 22.7766 53.6743 22.6268 53.7237 22.4627C53.773 22.2986 53.7823 22.1251 53.7506 21.9567C53.7189 21.7883 53.6473 21.6299 53.5417 21.495C53.4361 21.3601 53.2996 21.2524 53.1437 21.1812C52.9879 21.11 52.8172 21.0773 52.6461 21.0858C52.4749 21.0943 52.3083 21.1437 52.1603 21.23C52.0122 21.3163 51.8871 21.4369 51.7954 21.5816C49.7452 22.8173 47.7687 24.1633 45.8658 25.6198C44.6233 26.5862 43.5188 27.6872 42.4178 28.6882L36.3122 34.9284Z" fill="#0E90CF"/>
</g>
<defs>
<clipPath id="clip0_1562_7549">
<rect width="82.8346" height="82.8346" fill="white"/>
</clipPath>
</defs>
</svg>
