<svg width="25" height="25" viewBox="0 0 25 25" fill="none" xmlns="http://www.w3.org/2000/svg">
<g clip-path="url(#clip0_2420_7847)">
<path fill-rule="evenodd" clip-rule="evenodd" d="M16.1712 6.68574C15.6626 5.10215 14.8468 3.70059 13.6972 2.49453C13.4066 2.18945 13.0835 1.90996 12.8808 1.53047C12.7527 1.29023 12.6306 1.04668 12.5058 0.804883L12.4265 0.605469L12.4044 0.683984C12.3941 1.07852 12.1706 1.3459 11.8925 1.5957C11.5792 1.87656 11.2878 2.18164 10.987 2.47637L10.062 3.69297L9.31418 5.06836L8.81399 6.41895L8.79895 6.43984C8.52375 7.34395 8.38801 8.27363 8.32141 9.21231C8.29621 9.56523 8.32512 9.92305 8.34485 10.2777C8.37317 10.7848 8.46125 11.283 8.59328 11.7738C9.07317 13.5562 10.0472 15.0346 11.379 16.2908C11.6263 16.5242 11.8937 16.7365 12.1517 16.9584L12.2659 17.3506L12.3722 17.9592L12.423 18.5945C12.4224 18.7234 12.4171 18.8529 12.4247 18.9814C12.4269 19.0145 12.4698 19.0449 12.4941 19.0766L12.7097 19.1523L12.9341 19.2396L12.8956 18.675L12.8939 18.1187L12.9714 17.2715L13.0277 17.0871L13.1888 16.8018C13.3876 16.642 13.6007 16.4967 13.7818 16.3188C14.1093 15.9971 14.4363 15.6709 14.7294 15.3184C15.1108 14.8614 15.4366 14.3607 15.6999 13.827C15.8755 13.4689 16.0411 13.1037 16.178 12.7297C16.2988 12.4 16.3736 12.0533 16.4687 11.7141L16.4937 11.6408C16.69 10.7252 16.723 9.8002 16.6509 8.86934C16.5929 8.11914 16.4165 7.39512 16.1712 6.68574ZM12.2845 16.5051C12.3146 16.3545 12.3519 16.2047 12.379 16.0535C12.3519 16.2047 12.3148 16.3545 12.2845 16.5051ZM20.7945 20.1104C20.6331 19.8012 20.3964 19.5664 20.0835 19.4123C19.8214 19.2834 19.5396 19.2268 19.2497 19.2186C19.0325 19.2123 18.8146 19.2234 18.597 19.2262C18.4038 19.2285 18.2105 19.2318 18.0173 19.2301C17.7902 19.2277 17.563 19.2209 17.3359 19.2145C17.2982 19.2133 17.2714 19.2209 17.2538 19.2592C17.2263 19.3188 17.1937 19.3762 17.1599 19.4414L17.1978 19.4535C17.3105 19.4734 17.4238 19.4904 17.5359 19.5129C17.68 19.5416 17.7448 19.6244 17.7515 19.7459C17.761 19.9191 17.7654 20.0924 17.7646 20.2658C17.7616 20.9521 17.7568 21.6385 17.7517 22.3246C17.7513 22.3699 17.7505 22.4172 17.7382 22.4598C17.7239 22.509 17.7085 22.5727 17.6718 22.5969C17.6057 22.6393 17.5316 22.6676 17.454 22.6799C17.3445 22.6979 17.3261 22.7027 17.2919 22.8105L17.2771 22.8645C17.2607 22.9232 17.2695 22.9348 17.3308 22.9354C17.6827 22.9393 18.0345 22.9469 18.3863 22.9457C18.7071 22.9445 19.028 22.9641 19.3478 22.9037C19.6499 22.8469 19.932 22.7473 20.1894 22.5787C20.5234 22.3598 20.7636 22.0672 20.8904 21.6854C20.9927 21.377 21.0155 21.0623 20.9808 20.7398C20.9592 20.5201 20.896 20.3064 20.7945 20.1104ZM20.1779 21.9973C19.9896 22.3477 19.7087 22.5816 19.3073 22.6434C19.056 22.6818 18.8042 22.6707 18.5646 22.5756C18.4128 22.5154 18.3564 22.3844 18.3517 22.2295C18.3474 22.0777 18.3452 21.9259 18.3452 21.774C18.3445 21.24 18.3445 20.7061 18.3452 20.1723C18.3456 20.0041 18.3486 19.8355 18.3513 19.6672C18.3532 19.5488 18.378 19.5092 18.4935 19.4996C19.0005 19.457 19.4843 19.5117 19.8861 19.8686C20.1345 20.0893 20.2759 20.3707 20.3347 20.6939C20.3591 20.8287 20.3665 20.9666 20.3818 21.1033C20.3695 21.4154 20.3273 21.7191 20.1779 21.9973ZM24.4335 21.4189C24.3335 21.1756 24.1441 21.023 23.906 20.9254C23.8247 20.892 23.7409 20.8645 23.6532 20.832L23.6839 20.8125C23.7786 20.7518 23.8841 20.7027 23.9657 20.6279C24.1642 20.4461 24.2466 20.2174 24.2079 19.9457C24.1712 19.6873 24.0423 19.4977 23.812 19.3746C23.6031 19.2633 23.3777 19.2227 23.1445 19.2229C22.7409 19.2232 22.3372 19.2293 21.9337 19.2301C21.7946 19.2303 21.6556 19.2199 21.5165 19.218C21.4896 19.2176 21.4495 19.2244 21.438 19.2424C21.4062 19.2912 21.3851 19.3475 21.3624 19.4018C21.3493 19.4334 21.3622 19.4508 21.3984 19.4555C21.4954 19.4688 21.5923 19.4854 21.6896 19.4998C21.8239 19.5199 21.889 19.5898 21.8972 19.7252L21.8989 19.8055C21.8991 20.2264 21.9005 20.6473 21.8988 21.0682C21.8962 21.4885 21.8923 21.9088 21.8868 22.3291C21.8863 22.382 21.879 22.4352 21.8714 22.4877C21.8599 22.567 21.8175 22.6217 21.7363 22.6389L21.5064 22.6842C21.4792 22.6896 21.44 22.6889 21.4288 22.7057C21.3866 22.7687 21.3527 22.8377 21.3573 22.9209L21.381 22.9273L22.153 22.9463L22.3079 22.9457C22.5751 22.9426 22.8427 22.9479 23.1095 22.9342C23.3984 22.9197 23.6696 22.834 23.9204 22.6865C24.1874 22.5293 24.3929 22.3221 24.4659 22.0104C24.5128 21.8113 24.513 21.6111 24.4335 21.4189ZM22.472 19.6258C22.4732 19.5412 22.5105 19.5045 22.5945 19.5023C22.8013 19.4967 23.0068 19.4979 23.2064 19.5691C23.4646 19.6613 23.6234 19.884 23.6204 20.1561C23.6191 20.2605 23.6206 20.3641 23.5822 20.4645C23.5062 20.6621 23.3605 20.7664 23.1538 20.7867C23.046 20.7977 22.9372 20.7988 22.8411 20.8039L22.5204 20.7898C22.4779 20.7883 22.4593 20.7695 22.4595 20.7258L22.472 19.6258ZM23.8013 22.2613C23.698 22.4861 23.5097 22.6043 23.2739 22.6453C23.0861 22.6777 22.8934 22.6692 22.7091 22.6205C22.5712 22.5852 22.515 22.4744 22.4874 22.3516C22.4689 22.2693 22.472 22.1715 22.4704 22.0859C22.4679 21.9539 22.4698 21.6799 22.4698 21.6799H22.4671C22.4671 21.4846 22.4677 21.3154 22.4665 21.1281C22.4663 21.0877 22.4732 21.0676 22.5226 21.0691C22.698 21.0744 22.8739 21.0773 23.0493 21.0842C23.2062 21.0902 23.353 21.1367 23.4911 21.2111C23.7013 21.3244 23.8279 21.4979 23.8626 21.7361C23.8892 21.9168 23.8779 22.0945 23.8013 22.2613ZM4.54602 22.4719L4.54973 21.41C4.55031 21.2502 4.53 21.0936 4.47766 20.942C4.33332 20.5246 3.93528 20.3346 3.52082 20.4844C3.33235 20.5525 3.1634 20.6559 3.00207 20.773C2.90813 20.8414 2.90813 20.8414 2.84016 20.7439C2.64778 20.4682 2.37297 20.3738 2.05305 20.4756C1.84621 20.5412 1.66535 20.6535 1.49406 20.784C1.47805 20.7961 1.44582 20.8096 1.43625 20.8023C1.42024 20.7904 1.4091 20.7621 1.40949 20.7408L1.42121 20.5521C1.42219 20.5125 1.41457 20.4727 1.41067 20.4311C1.33332 20.4578 1.2716 20.4846 1.20696 20.5002C1.00715 20.549 0.805979 20.5939 0.605002 20.6398C0.556369 20.651 0.505002 20.6656 0.500315 20.7215C0.495432 20.7764 0.548362 20.7855 0.589377 20.802C0.675705 20.837 0.761513 20.8734 0.846799 20.9111C0.918479 20.9428 0.945237 21 0.944846 21.077C0.943479 21.4061 0.945627 21.7348 0.943674 22.0639C0.942893 22.1977 0.936643 22.3312 0.930588 22.465C0.925119 22.5836 0.88469 22.6332 0.769846 22.6631C0.708908 22.6791 0.646994 22.6898 0.585666 22.7043C0.57219 22.7074 0.549143 22.716 0.548948 22.7227C0.546408 22.7807 0.543284 22.84 0.553049 22.8965C0.555002 22.9066 0.61633 22.9066 0.650315 22.9105L0.673166 22.9092C0.909885 22.9054 1.14667 22.9021 1.38352 22.8994C1.5091 22.898 1.63449 22.8992 1.77082 22.8992L1.78547 22.7098C1.70735 22.6955 1.63762 22.6848 1.56887 22.6697C1.46164 22.6463 1.41594 22.5895 1.41321 22.4812L1.41125 22.3264C1.41008 21.9246 1.40852 21.523 1.40852 21.1213C1.40852 21.0629 1.43274 21.0166 1.4841 20.9816C1.59289 20.9082 1.70774 20.8498 1.83489 20.8172C2.10285 20.7486 2.33528 20.8439 2.4384 21.0719C2.47102 21.1438 2.4966 21.2232 2.50383 21.3014C2.54172 21.7041 2.52531 22.1072 2.50246 22.51C2.49758 22.5969 2.45676 22.6406 2.37102 22.6619L2.16946 22.7045C2.15324 22.7086 2.12961 22.6977 2.12844 22.7111C2.12395 22.7668 2.12649 22.8521 2.12649 22.8521H2.17453L2.78821 22.8723C2.95637 22.8719 3.12473 22.8922 3.2927 22.8965C3.32278 22.8971 3.34953 22.9016 3.35129 22.8668C3.35306 22.8128 3.35235 22.7588 3.34914 22.7049L3.31711 22.6992L3.14426 22.6604C3.02766 22.6328 2.98742 22.5885 2.98703 22.4705C2.98567 22.1797 2.98957 21.8891 2.98703 21.5984C2.98556 21.4322 2.97937 21.2661 2.96848 21.1002C2.96555 21.0561 2.97239 21.0271 3.00754 21.0023C3.10942 20.9278 3.22406 20.8725 3.34582 20.8393C3.72375 20.7396 4.03313 20.9469 4.05266 21.3365C4.0718 21.7123 4.06379 22.0895 4.06086 22.466C4.05989 22.5971 4.01653 22.6367 3.88742 22.6719L3.84289 22.6834C3.71067 22.715 3.71184 22.715 3.71965 22.8555C3.72219 22.8994 3.7343 22.9107 3.78117 22.9096C4.05051 22.9035 4.31985 22.902 4.58918 22.8996C4.69934 22.8986 4.80949 22.8996 4.92942 22.8996L4.95383 22.7168C4.84856 22.6889 4.75149 22.6682 4.65774 22.6375C4.57492 22.6094 4.54563 22.5594 4.54602 22.4719ZM13.8212 20.8623C13.9322 20.7594 13.9329 20.6234 13.9019 20.4725C13.814 20.5645 13.7155 20.6068 13.6032 20.6148C13.4527 20.6256 13.3048 20.6125 13.1646 20.5525C12.7853 20.3896 12.4118 20.4012 12.0396 20.5799C11.7265 20.7299 11.5339 20.9637 11.5146 21.3182C11.5023 21.5453 11.5448 21.7604 11.6964 21.941C11.7872 22.0492 11.9038 22.1193 12.0353 22.1678C12.0919 22.1887 12.0962 22.2156 12.0488 22.2518C12.0137 22.2782 11.9774 22.303 11.94 22.326C11.8606 22.3759 11.7808 22.4249 11.7005 22.4732C11.6534 22.5018 11.6374 22.5381 11.6529 22.5938C11.698 22.7574 11.8142 22.852 11.9595 22.9209L12.0124 22.9578L11.9661 23.0041C11.8238 23.1195 11.6757 23.2285 11.5394 23.351C11.4249 23.4539 11.388 23.5918 11.4226 23.7439C11.4923 24.0477 11.6937 24.2355 11.9794 24.3219C12.4788 24.473 12.9478 24.3863 13.3753 24.0904C13.6288 23.9148 13.8107 23.6863 13.8659 23.3719C13.9279 23.0186 13.7316 22.7119 13.3802 22.6486C13.1478 22.6064 12.9099 22.5943 12.6747 22.5674C12.565 22.5549 12.4536 22.5475 12.3468 22.5223C12.256 22.5008 12.2109 22.4268 12.2193 22.3545C12.2277 22.2834 12.3032 22.2172 12.3898 22.2104C12.564 22.1963 12.7347 22.1691 12.8952 22.0957C13.3206 21.9012 13.5181 21.5605 13.4687 21.102C13.4622 21.0402 13.4482 20.9793 13.4355 20.9074C13.5716 20.9303 13.7109 20.9648 13.8212 20.8623ZM12.5304 23.0141C12.7034 23.0191 12.9003 23.0299 13.0905 23.0855C13.2579 23.1344 13.3956 23.2199 13.4363 23.4068C13.4853 23.6326 13.3767 23.8572 13.1581 23.9779C12.9534 24.0908 12.7312 24.1002 12.5058 24.077C12.3128 24.057 12.1392 23.9902 12.0001 23.8477C11.8169 23.66 11.8159 23.4002 11.9993 23.2131C12.1632 23.0459 12.2509 23.0113 12.5304 23.0141ZM12.9634 21.6543C12.8626 21.9768 12.5693 22.0213 12.3394 21.9182C12.1435 21.8305 12.0581 21.6578 12.0134 21.4607C11.996 21.385 11.9919 21.3063 11.9818 21.2287C11.9859 21.1176 12.0042 21.0109 12.0521 20.9109C12.1988 20.6029 12.5591 20.6213 12.7585 20.7607C12.8441 20.8205 12.9036 20.9018 12.9409 20.998C13.024 21.2076 13.0319 21.4395 12.9634 21.6543ZM11.1333 22.6822C11.0635 22.6715 10.9946 22.6561 10.9269 22.6361C10.8081 22.5998 10.7937 22.5775 10.7923 22.452C10.7888 22.102 10.7864 21.752 10.7825 21.4021C10.7806 21.2447 10.7618 21.0895 10.7136 20.9391C10.5866 20.5426 10.1978 20.3297 9.80871 20.4467C9.59309 20.5117 9.40793 20.6326 9.23547 20.7746L9.17258 20.8229L9.17278 20.7582C9.17688 20.6838 9.18489 20.6094 9.1843 20.535C9.18391 20.4961 9.16907 20.457 9.16184 20.4229C9.01477 20.4672 8.88293 20.5117 8.74836 20.5457C8.6134 20.5797 8.47571 20.6027 8.33918 20.6305C8.27141 20.6441 8.2216 20.6852 8.22278 20.7318C8.22453 20.7977 8.27903 20.8104 8.32668 20.8301C8.41301 20.8654 8.49914 20.9012 8.58449 20.9391C8.64543 20.9662 8.67024 21.0166 8.66965 21.082C8.66535 21.5369 8.66262 21.992 8.65598 22.4471C8.65403 22.5908 8.6177 22.6287 8.47629 22.6604L8.41457 22.6727C8.28371 22.6951 8.28 22.7004 8.28899 22.8385L8.28977 22.8613C8.28821 22.9145 8.31145 22.9316 8.36614 22.9311C8.71379 22.9268 9.06151 22.9252 9.4093 22.9264C9.55832 22.927 9.57434 22.9152 9.57121 22.7621L9.56418 22.6963C9.47903 22.682 9.39758 22.6717 9.31789 22.6541C9.2345 22.6355 9.20461 22.6014 9.1968 22.5166C9.18957 22.4391 9.18723 22.3604 9.18645 22.2822C9.18254 21.9245 9.17961 21.567 9.17766 21.2096C9.17727 21.1195 9.19387 21.0359 9.27668 20.9779C9.39857 20.8908 9.54226 20.8393 9.69172 20.8291C10.0019 20.8078 10.2376 20.9916 10.2544 21.3008C10.2751 21.6822 10.2689 22.065 10.2738 22.4473C10.2741 22.4758 10.2691 22.5045 10.2652 22.5328C10.2577 22.5887 10.2304 22.6307 10.1738 22.6451C10.1185 22.6596 10.0624 22.6725 10.006 22.6811C9.9218 22.6936 9.92004 22.693 9.9136 22.7779L9.91574 22.8352C9.92571 22.934 9.9259 22.9311 10.0259 22.9301C10.3622 22.9272 10.6984 22.9258 11.0345 22.926C11.1751 22.9264 11.1851 22.9197 11.1863 22.7748L11.1859 22.7404C11.188 22.7033 11.1714 22.6883 11.1333 22.6822ZM15.831 20.4707C15.4784 20.3846 15.1441 20.4486 14.8265 20.6129C14.5179 20.7725 14.3116 21.0191 14.2331 21.3598C14.1538 21.7041 14.1917 22.04 14.3439 22.3598C14.4429 22.5674 14.5952 22.7279 14.8027 22.8322C15.2882 23.0768 15.8822 22.9658 16.263 22.6387C16.5636 22.3807 16.6739 22.0371 16.6806 21.6119C16.6765 21.5693 16.6724 21.4873 16.6611 21.4061C16.5972 20.9432 16.2767 20.5797 15.831 20.4707ZM16.098 22.2588C16.0044 22.6271 15.6859 22.7908 15.3265 22.6643C15.1431 22.5998 15.006 22.4766 14.9138 22.31C14.7017 21.9271 14.6609 21.5201 14.7816 21.1025C14.862 20.8244 15.0909 20.6723 15.3632 20.6914C15.6066 20.7084 15.7937 20.8252 15.931 21.0232C16.0757 21.2322 16.1316 21.4699 16.1464 21.7195C16.1489 21.7596 16.1468 21.7996 16.1468 21.8398L16.164 21.8418C16.1425 21.9811 16.1323 22.123 16.098 22.2588ZM6.96438 20.4646C6.59348 20.3799 6.24602 20.4637 5.92414 20.6521C5.64582 20.815 5.46594 21.0584 5.39699 21.3764C5.33235 21.6734 5.35871 21.9654 5.46399 22.25C5.52805 22.4234 5.62512 22.576 5.7675 22.6949C6.06731 22.9451 6.4177 23.0084 6.79055 22.9387C7.10617 22.8795 7.38352 22.7393 7.58508 22.477C7.77375 22.2316 7.84563 21.95 7.85305 21.6447C7.84192 21.548 7.83918 21.4496 7.81867 21.3553C7.71672 20.8844 7.44133 20.5734 6.96438 20.4646ZM7.26692 22.2576C7.17649 22.624 6.85285 22.7918 6.49602 22.6652C6.26692 22.5838 6.1177 22.416 6.02336 22.201C5.87219 21.8555 5.84133 21.4959 5.93918 21.1314C6.01418 20.8527 6.24016 20.6475 6.58606 20.6967C6.79836 20.7268 6.96399 20.8352 7.08742 21.0076C7.25422 21.2402 7.3091 21.5066 7.31672 21.7865V21.8438L7.33078 21.8459C7.31028 21.9834 7.30012 22.1232 7.26692 22.2576Z" fill="white"/>
</g>
<defs>
<clipPath id="clip0_2420_7847">
<rect width="25" height="25" fill="white"/>
</clipPath>
</defs>
</svg>
