<svg width="25" height="25" viewBox="0 0 25 25" fill="none" xmlns="http://www.w3.org/2000/svg">
<path d="M17.0885 5.7304C16.9688 5.7304 16.8875 5.74498 16.8031 5.76477V5.77831H16.8177C16.874 5.88665 16.9698 5.96581 17.0406 6.06269C17.0969 6.17415 17.1448 6.28561 17.201 6.39602L17.2156 6.3804C17.3135 6.31165 17.3615 6.20123 17.3615 6.03352C17.3198 5.98456 17.3135 5.93561 17.2781 5.88769C17.2365 5.8179 17.1469 5.78352 17.0906 5.72831L17.0885 5.7304ZM6.01042 19.4741H5.04479C5.01744 17.9396 4.92361 16.4069 4.76354 14.8804H4.75521L3.28646 19.4741H2.55208L1.09375 14.8804H1.08333C0.969332 16.4092 0.901593 17.9412 0.880208 19.4741H0C0.0576389 17.4255 0.2 15.5054 0.427083 13.7137H1.625L3.01562 17.9471H3.02396L4.42708 13.7137H5.56771C5.81979 15.8137 5.9684 17.7339 6.01354 19.4741H6.01042ZM10.1948 15.2241C9.80104 17.3554 9.28299 18.904 8.64062 19.87C8.13854 20.6158 7.58889 20.9884 6.99167 20.9877C6.83333 20.9877 6.63681 20.9398 6.40208 20.8439V20.3294C6.51736 20.3474 6.65139 20.3564 6.80417 20.3564C7.08333 20.3564 7.30799 20.2794 7.47812 20.1252C7.68299 19.9377 7.78542 19.7276 7.78542 19.495C7.78542 19.3332 7.70556 19.0054 7.54583 18.5116L6.48958 15.2241H7.4375L8.19479 17.6825C8.36632 18.2408 8.4375 18.6307 8.40833 18.8523C8.825 17.7425 9.11493 16.5332 9.27812 15.2241H10.1948ZM23.0333 19.4741H20.2937V13.7137H21.2156V18.7658H23.0333V19.4741ZM19.575 19.6148L18.5167 19.0939C18.6111 19.0155 18.6997 18.9287 18.7823 18.8335C19.233 18.3057 19.458 17.5235 19.4573 16.4866C19.4573 14.5804 18.709 13.6269 17.2125 13.6262C16.4792 13.6262 15.9062 13.8682 15.4937 14.3523C15.0451 14.8814 14.8208 15.661 14.8208 16.6908C14.8201 17.704 15.0194 18.4471 15.4187 18.92C15.7826 19.3471 16.3323 19.5606 17.0677 19.5606C17.3427 19.5606 17.5944 19.5266 17.8229 19.4585L19.2031 20.2627L19.5781 19.6148H19.575ZM16.1458 18.321C15.9118 17.9453 15.7948 17.3426 15.7948 16.5127C15.7948 15.0613 16.2358 14.3356 17.1177 14.3356C17.5802 14.3356 17.9194 14.5092 18.1354 14.8564C18.3687 15.2335 18.4854 15.8318 18.4854 16.6512C18.4854 18.1144 18.0444 18.8464 17.1625 18.8471C16.6993 18.8471 16.3597 18.6735 16.1437 18.3262L16.1458 18.321ZM14.4187 17.8783C14.4187 18.3686 14.2396 18.77 13.8812 19.0825C13.5243 19.395 13.0437 19.5512 12.4396 19.5512C11.874 19.5512 11.3313 19.3721 10.801 19.0148L11.0479 18.5189C11.5035 18.7474 11.9167 18.8613 12.2875 18.8606C12.6333 18.8606 12.9052 18.7842 13.1031 18.6314C13.2023 18.5571 13.2824 18.4602 13.3367 18.3488C13.391 18.2374 13.4181 18.1147 13.4156 17.9908C13.4156 17.6471 13.176 17.3554 12.7406 17.1106C12.3365 16.8887 11.5292 16.4262 11.5292 16.4262C11.0896 16.1064 10.8708 15.7637 10.8708 15.2002C10.8708 14.7321 11.034 14.3554 11.3604 14.07C11.6875 13.7811 12.1111 13.637 12.6313 13.6377C13.1653 13.6377 13.6514 13.78 14.0896 14.0648L13.8677 14.5606C13.5184 14.4063 13.1413 14.3248 12.7594 14.321C12.4642 14.321 12.2372 14.3926 12.0781 14.5356C11.998 14.6024 11.9335 14.6858 11.8889 14.7801C11.8442 14.8743 11.8207 14.9772 11.8198 15.0814C11.8198 15.4231 12.0635 15.7169 12.5135 15.9669C12.9229 16.1908 13.75 16.6648 13.75 16.6648C14.201 16.9825 14.425 17.321 14.425 17.8814L14.4187 17.8783ZM24.1917 11.7825C23.6344 11.7679 23.2021 11.8241 22.8406 11.9783C22.7365 12.02 22.5698 12.02 22.5552 12.1523C22.6125 12.2075 22.6208 12.2981 22.6698 12.3752C22.7531 12.5148 22.8969 12.7012 23.0302 12.7991C23.1747 12.9151 23.3229 13.0228 23.475 13.1221C23.7458 13.2887 24.0531 13.3877 24.3188 13.5554C24.4698 13.6533 24.624 13.7773 24.7771 13.8814C24.8531 13.9335 24.9021 14.0273 25 14.0606V14.0398C24.9521 13.9773 24.9375 13.8866 24.8906 13.8169C24.8208 13.7471 24.751 13.6846 24.6823 13.6158C24.4781 13.3461 24.2339 13.109 23.9583 12.9127C23.7354 12.7606 23.2479 12.5481 23.1562 12.2929L23.1427 12.2783C23.2948 12.2648 23.476 12.2096 23.6219 12.1679C23.8583 12.1054 24.075 12.1189 24.3198 12.0575C24.4309 12.0283 24.542 11.9957 24.6531 11.9596V11.8971C24.5281 11.7721 24.4344 11.6023 24.3052 11.4856C23.9443 11.1709 23.5599 10.8843 23.1552 10.6283C22.9365 10.4887 22.6594 10.3991 22.4292 10.2804C22.3458 10.2387 22.2062 10.2179 22.1583 10.1481C22.0333 9.99602 21.9604 9.79394 21.8719 9.61269C21.6676 9.21578 21.4775 8.8117 21.3021 8.40123C21.1771 8.12831 21.101 7.85644 20.9479 7.60644C20.2292 6.42206 19.451 5.70436 18.2542 5.00227C17.9969 4.85644 17.6885 4.79394 17.3625 4.71686C17.1885 4.70852 17.0146 4.69602 16.8417 4.68873C16.7271 4.63977 16.6167 4.50748 16.5187 4.44394C16.1229 4.19394 15.0979 3.65227 14.8062 4.36894C14.6187 4.82102 15.0844 5.26686 15.2458 5.49602C15.3656 5.6554 15.5167 5.83769 15.6 6.01686C15.649 6.13769 15.6625 6.26165 15.7115 6.38769C15.8219 6.69394 15.9271 7.03561 16.0729 7.32206C16.149 7.4679 16.2323 7.62102 16.3302 7.75227C16.3865 7.82831 16.4823 7.86373 16.5042 7.98873C16.4062 8.1304 16.4 8.33665 16.3437 8.50956C16.0937 9.29811 16.1917 10.2731 16.5458 10.8533C16.6573 11.0262 16.9229 11.4096 17.2781 11.2627C17.5906 11.1377 17.5219 10.7419 17.6115 10.3929C17.6323 10.3096 17.6187 10.2544 17.6615 10.1981V10.2137C17.7594 10.4096 17.8573 10.596 17.9469 10.7919C18.1615 11.1335 18.5365 11.4877 18.85 11.7241C19.0167 11.8491 19.149 12.0658 19.3573 12.1429V12.1221H19.3417C19.2969 12.0616 19.2375 12.0325 19.1812 11.9835C19.0493 11.8541 18.9275 11.7148 18.8167 11.5669C18.5241 11.1652 18.2639 10.741 18.0385 10.2981C17.924 10.0794 17.8281 9.84394 17.7365 9.62831C17.6948 9.54498 17.6948 9.41998 17.625 9.37831C17.5208 9.5304 17.3677 9.66269 17.2917 9.85019C17.1594 10.1502 17.1458 10.5189 17.0958 10.9023C17.0677 10.9096 17.0812 10.9023 17.0677 10.9169C16.8448 10.8627 16.7687 10.6314 16.6854 10.4377C16.4771 9.9429 16.4427 9.14811 16.6229 8.57831C16.6719 8.43248 16.8802 7.97206 16.7969 7.83248C16.7531 7.70019 16.6156 7.62415 16.5396 7.51686C16.4419 7.37713 16.3582 7.22815 16.2896 7.07206C16.1229 6.68248 16.0396 6.25123 15.8583 5.86165C15.775 5.68144 15.6292 5.4929 15.5104 5.32727C15.3781 5.13977 15.2323 5.00748 15.1271 4.78561C15.0927 4.70956 15.0437 4.58352 15.099 4.50019C15.1135 4.44394 15.1427 4.42206 15.1969 4.40644C15.2885 4.33144 15.5458 4.42936 15.6365 4.47102C15.8937 4.57519 16.1104 4.67311 16.326 4.81894C16.424 4.88769 16.5292 5.01998 16.6542 5.05436H16.8C17.0229 5.10331 17.274 5.06894 17.4823 5.1304C17.8521 5.24915 18.1854 5.42206 18.4844 5.60956C19.4057 6.1979 20.1549 7.01943 20.6562 7.99081C20.7396 8.15123 20.776 8.29811 20.8521 8.46477C20.9979 8.80852 21.1781 9.1554 21.326 9.48769C21.4719 9.81581 21.6125 10.1502 21.8219 10.4221C21.926 10.5679 22.3448 10.6439 22.5323 10.72C22.6708 10.7825 22.8865 10.8398 23.0115 10.9158C23.251 11.0616 23.4844 11.2283 23.7094 11.3887C23.824 11.4679 24.1708 11.6419 24.1917 11.7825Z" fill="white"/>
</svg>
