<svg width="21" height="21" viewBox="0 0 21 21" fill="none" xmlns="http://www.w3.org/2000/svg">
<path d="M11.2761 1.19174C11.0409 1.05341 10.7729 0.980469 10.5 0.980469C10.2271 0.980469 9.95913 1.05341 9.72388 1.19174L2.94262 5.17999C2.71264 5.31521 2.52197 5.50818 2.38952 5.73978C2.25707 5.97138 2.18743 6.23356 2.1875 6.50036V14.4996C2.1875 15.0421 2.4745 15.5444 2.94262 15.8191L5.23775 17.1692C6.40413 17.857 7.875 17.0152 7.875 15.6625V6.77861H6.125V15.6616L3.9375 14.3745V6.62549L10.5 2.76499L17.0625 6.62549V14.3745L10.5 18.235L8.953 17.325L8.06575 18.8326L9.72388 19.8082C9.95913 19.9466 10.2271 20.0195 10.5 20.0195C10.7729 20.0195 11.0409 19.9466 11.2761 19.8082L18.0574 15.8191C18.2872 15.684 18.4778 15.4911 18.6103 15.2597C18.7427 15.0283 18.8124 14.7663 18.8125 14.4996V6.50036C18.8124 6.23371 18.7427 5.97171 18.6103 5.74028C18.4778 5.50885 18.2872 5.31601 18.0574 5.18086L11.2761 1.19174ZM12.25 6.56249C11.0574 6.56249 10.2121 6.86961 9.66875 7.41124C9.25843 7.81934 9.02655 8.3734 9.02387 8.95211C9.02387 9.43773 9.16125 9.87786 9.44563 10.2419C9.7195 10.5919 10.08 10.8097 10.4256 10.9506C11.0556 11.2105 11.8431 11.2954 12.4766 11.3627L12.5527 11.3715C13.2799 11.4502 13.825 11.5176 14.1978 11.6734C14.3666 11.7434 14.4358 11.8081 14.4646 11.8457C14.483 11.8702 14.5189 11.9245 14.5189 12.0732C14.5189 12.3042 14.4401 12.453 14.1925 12.5939C13.8889 12.7662 13.3525 12.8975 12.5449 12.8975C11.7443 12.8975 11.186 12.7487 10.8666 12.5282C10.619 12.3567 10.4361 12.0934 10.4843 11.522L8.74038 11.3759C8.64588 12.5037 9.0545 13.4024 9.87088 13.9676C10.6155 14.4839 11.5946 14.6475 12.5449 14.6475C13.4873 14.6475 14.3754 14.5031 15.0587 14.1137C15.799 13.6937 16.2689 12.992 16.2689 12.0732C16.2689 11.5859 16.1332 11.1449 15.8515 10.7782C15.5802 10.4247 15.2197 10.2042 14.8732 10.059C14.2362 9.79211 13.4383 9.70636 12.8013 9.63811L12.74 9.63111C12.0111 9.55236 11.466 9.48674 11.0906 9.33274C10.9209 9.26274 10.8517 9.19973 10.8255 9.16473C10.808 9.14373 10.7739 9.09474 10.7739 8.95211C10.7739 8.88473 10.794 8.76048 10.9051 8.65023C11.0119 8.54348 11.3418 8.31248 12.25 8.31248C13.1163 8.31248 13.6211 8.40436 13.9099 8.57499C14.098 8.68699 14.3019 8.89261 14.3299 9.56636L16.0781 9.49636C16.0344 8.40611 15.6354 7.56436 14.8024 7.07086C14.07 6.63511 13.1337 6.56249 12.25 6.56249Z" fill="white"/>
</svg>
