<svg width="50" height="50" viewBox="0 0 50 50" fill="none" xmlns="http://www.w3.org/2000/svg">
<path d="M18.7529 35.4166V43.75L25.0029 39.5833L31.2529 43.75V35.4166M29.08 8.90621L28.407 7.98121C28.0161 7.44488 27.504 7.00851 26.9124 6.70766C26.3208 6.40681 25.6666 6.25 25.0029 6.25C24.3392 6.25 23.6849 6.40681 23.0933 6.70766C22.5018 7.00851 21.9896 7.44488 21.5987 7.98121L20.9258 8.90621L19.7945 8.72913C19.139 8.62575 18.4683 8.67887 17.8372 8.88416C17.2061 9.08945 16.6325 9.44108 16.1633 9.91035C15.694 10.3796 15.3424 10.9532 15.1371 11.5843C14.9318 12.2154 14.8787 12.8861 14.982 13.5416L15.1591 14.6729L14.2341 15.3458C13.697 15.7362 13.2599 16.2481 12.9585 16.8398C12.6571 17.4314 12.5 18.086 12.5 18.75C12.5 19.4139 12.6571 20.0685 12.9585 20.6602C13.2599 21.2518 13.697 21.7637 14.2341 22.1541L15.1591 22.827L14.982 23.9562C14.8783 24.6119 14.9311 25.2828 15.1363 25.9142C15.3414 26.5456 15.693 27.1195 16.1623 27.589C16.6316 28.0585 17.2053 28.4103 17.8366 28.6157C18.4679 28.8211 19.1388 28.8743 19.7945 28.7708L20.9258 28.5937L21.5987 29.5187C21.9896 30.055 22.5018 30.4914 23.0933 30.7923C23.6849 31.0931 24.3392 31.2499 25.0029 31.2499C25.6666 31.2499 26.3208 31.0931 26.9124 30.7923C27.504 30.4914 28.0161 30.055 28.407 29.5187L29.08 28.5937L30.2091 28.7708C30.8648 28.8745 31.5358 28.8217 32.1671 28.6166C32.7985 28.4114 33.3724 28.0599 33.8419 27.5906C34.3114 27.1212 34.6632 26.5475 34.8686 25.9162C35.074 25.2849 35.1272 24.614 35.0237 23.9583L34.8466 22.827L35.7716 22.1541C36.308 21.7632 36.7443 21.2511 37.0452 20.6595C37.346 20.0679 37.5028 19.4136 37.5028 18.75C37.5028 18.0863 37.346 17.432 37.0452 16.8404C36.7443 16.2488 36.308 15.7367 35.7716 15.3458L34.8466 14.6729L35.0237 13.5437C35.1275 12.888 35.0746 12.2171 34.8695 11.5857C34.6644 10.9543 34.3128 10.3805 33.8435 9.91094C33.3742 9.44142 32.8004 9.08959 32.1691 8.8842C31.5379 8.6788 30.8669 8.62566 30.2112 8.72913L29.08 8.90621Z" stroke="#00AEFF" stroke-width="2" stroke-linecap="round" stroke-linejoin="round"/>
</svg>
