<svg width="84" height="84" viewBox="0 0 84 84" fill="none" xmlns="http://www.w3.org/2000/svg">
<g clip-path="url(#clip0_1563_7560)">
<path d="M16.6203 20.7807H3.23812C1.70041 20.7807 0.162703 22.1106 0.370502 24.2717L6.8538 65.7897C6.8538 65.7897 14.5423 35.2019 16.0385 27.8458C16.4956 25.6431 18.5736 24.9366 20.1113 24.9366H41.5561C41.5561 24.9366 38.6469 16.2922 38.356 15.3364C37.8573 13.5077 36.943 12.4688 35.1143 12.4688H21.3581C19.862 12.4688 18.4489 13.4246 18.0333 15.1286C17.6593 16.791 16.6203 20.7807 16.6203 20.7807ZM36.9014 20.7807H20.2776C20.2776 20.7807 22.0231 16.6247 23.8932 16.6247H32.7454C34.7403 16.6247 36.9014 20.7807 36.9014 20.7807ZM11.0929 67.5352C9.80454 69.4885 7.93435 70.6522 5.85637 70.6522H71.2297C73.4739 70.6522 75.0531 69.3639 75.5103 67.2028C77.3389 58.1012 82.4923 32.1264 82.4923 32.1264C82.7832 30.0485 81.2455 29.0926 79.9156 29.0926H66.4919V22.9833C66.4919 22.3184 65.4113 20.7807 63.7489 20.7807H48.1225C45.9614 20.7807 44.5068 23.1911 44.5068 23.1911L41.5561 29.0926H23.2283C21.8984 29.0926 20.61 29.8822 20.3607 31.1706C20.3607 31.1706 13.7527 59.0155 13.2124 61.6338C12.9215 63.1715 12.2981 65.7482 11.0929 67.5352ZM63.9152 29.0926H45.7121C45.7121 29.0926 48.1225 24.9366 50.4083 24.9366H59.9254C62.8762 24.9366 63.9152 29.0926 63.9152 29.0926Z" fill="#0E90CF"/>
</g>
<defs>
<clipPath id="clip0_1563_7560">
<rect width="83.1192" height="83.1192" fill="white"/>
</clipPath>
</defs>
</svg>
