<svg width="70" height="70" viewBox="0 0 70 70" fill="none" xmlns="http://www.w3.org/2000/svg">
<path d="M61.25 21.875H48.125V13.125C48.125 11.9647 47.6641 10.8519 46.8436 10.0314C46.0231 9.21094 44.9103 8.75 43.75 8.75H26.25C25.0897 8.75 23.9769 9.21094 23.1564 10.0314C22.3359 10.8519 21.875 11.9647 21.875 13.125V21.875H8.75C7.58968 21.875 6.47688 22.3359 5.65641 23.1564C4.83594 23.9769 4.375 25.0897 4.375 26.25V56.875C4.375 58.0353 4.83594 59.1481 5.65641 59.9686C6.47688 60.7891 7.58968 61.25 8.75 61.25H61.25C62.4103 61.25 63.5231 60.7891 64.3436 59.9686C65.1641 59.1481 65.625 58.0353 65.625 56.875V26.25C65.625 25.0897 65.1641 23.9769 64.3436 23.1564C63.5231 22.3359 62.4103 21.875 61.25 21.875ZM26.25 13.125H43.75V21.875H26.25V13.125ZM8.75 56.875V26.25H61.25V56.875H8.75Z" fill="#0E90CF"/>
</svg>
