<svg width="50" height="50" viewBox="0 0 50 50" fill="none" xmlns="http://www.w3.org/2000/svg">
<path d="M14.2042 45.8341V39.882C13.5833 33.6799 6.25 30.3591 6.25 20.8341C6.25 11.3132 11.9313 4.05073 23.2958 4.1674C31.4771 4.2549 39.2042 8.9299 39.2042 18.4549L43.75 25.5966C43.75 30.3591 39.2042 30.3591 39.2042 30.3591C39.2042 30.3591 40.3417 42.2632 30.1125 42.2632V45.8341" stroke="white" stroke-width="4" stroke-linecap="round" stroke-linejoin="round"/>
<path d="M22.9167 25.0013C24.0217 25.0013 25.0815 24.5623 25.8629 23.7809C26.6443 22.9995 27.0833 21.9397 27.0833 20.8346C27.0833 19.7296 26.6443 18.6698 25.8629 17.8884C25.0815 17.107 24.0217 16.668 22.9167 16.668C21.8116 16.668 20.7518 17.107 19.9704 17.8884C19.189 18.6698 18.75 19.7296 18.75 20.8346C18.75 21.9397 19.189 22.9995 19.9704 23.7809C20.7518 24.5623 21.8116 25.0013 22.9167 25.0013Z" stroke="white" stroke-width="2" stroke-linecap="round" stroke-linejoin="round"/>
<path d="M22.9141 27.084C24.5717 27.084 26.1614 26.4255 27.3335 25.2534C28.5056 24.0813 29.1641 22.4916 29.1641 20.834C29.1641 19.1764 28.5056 17.5867 27.3335 16.4146C26.1614 15.2425 24.5717 14.584 22.9141 14.584C21.2565 14.584 19.6667 15.2425 18.4946 16.4146C17.3225 17.5867 16.6641 19.1764 16.6641 20.834C16.6641 22.4916 17.3225 24.0813 18.4946 25.2534C19.6667 26.4255 21.2565 27.084 22.9141 27.084Z" stroke="white" stroke-width="2" stroke-linecap="round" stroke-linejoin="round" stroke-dasharray="0.3 2"/>
</svg>
