<svg width="18" height="18" viewBox="0 0 18 18" fill="none" xmlns="http://www.w3.org/2000/svg">
<path d="M17.0651 6.50016C16.7554 5.31453 16.1901 4.38266 15.0045 4.38266H13.4251V6.24641C13.4251 7.68578 12.1826 8.89941 10.8561 8.89941H6.64825C5.4915 8.89941 4.58763 9.88816 4.58763 11.0449V15.0262C4.58763 16.126 5.57638 16.8042 6.64825 17.1708C7.94763 17.5663 9.21725 17.6512 10.8264 17.1708C11.8711 16.8602 12.8879 16.2678 12.8879 15.0253V13.4442H8.73775V12.9367H15.0045C16.1901 12.9367 16.6705 12.0897 17.0651 10.8192C17.4886 9.43578 17.4886 8.16528 17.0651 6.50016ZM11.0801 14.404C11.5045 14.404 11.8711 14.7715 11.8711 15.195C11.8711 15.6185 11.5036 15.9852 11.081 15.9852C10.6575 16.0132 10.29 15.6177 10.29 15.195C10.262 14.7715 10.6286 14.404 11.081 14.404M6.45225 8.36303H10.6304C11.7871 8.36303 12.691 7.40316 12.691 6.21753V2.29316C12.691 1.19241 11.7311 0.345406 10.6295 0.147656C9.247 -0.0492188 7.72188 -0.0492188 6.45225 0.147656C4.67338 0.458281 4.39075 1.10753 4.39075 2.29316V3.87428H8.56888V4.38178H2.86563C1.68 4.38178 0.60725 5.14478 0.296625 6.49928C-0.098875 8.08041 -0.098875 9.06828 0.296625 10.7063C0.60725 11.9488 1.28537 12.8238 2.527 12.8238H3.88238V10.932C3.8535 9.54866 5.068 8.36303 6.45137 8.36303M6.19762 2.80153C5.98932 2.79729 5.79071 2.71271 5.6433 2.56547C5.4959 2.41822 5.4111 2.21971 5.40663 2.01141C5.40663 1.58791 5.77413 1.22041 6.19675 1.22041C6.61938 1.22041 6.98775 1.58791 6.98775 2.01141C6.98775 2.43491 6.62112 2.80153 6.19762 2.80153Z" fill="white"/>
</svg>
