<svg width="21" height="21" viewBox="0 0 21 21" fill="none" xmlns="http://www.w3.org/2000/svg">
<path d="M18.8776 8.25016C18.5679 7.06453 18.0026 6.13266 16.817 6.13266H15.2376V7.99641C15.2376 9.43578 13.9951 10.6494 12.6686 10.6494H8.46075C7.304 10.6494 6.40013 11.6382 6.40013 12.7949V16.7762C6.40013 17.876 7.38888 18.5542 8.46075 18.9208C9.76013 19.3163 11.0297 19.4012 12.6389 18.9208C13.6836 18.6102 14.7004 18.0178 14.7004 16.7753V15.1942H10.5503V14.6867H16.817C18.0026 14.6867 18.483 13.8397 18.8776 12.5692C19.3011 11.1858 19.3011 9.91528 18.8776 8.25016ZM12.8926 16.154C13.317 16.154 13.6836 16.5215 13.6836 16.945C13.6836 17.3685 13.3161 17.7352 12.8935 17.7352C12.47 17.7632 12.1025 17.3677 12.1025 16.945C12.0745 16.5215 12.4411 16.154 12.8935 16.154M8.26475 10.113H12.4429C13.5996 10.113 14.5035 9.15316 14.5035 7.96753V4.04316C14.5035 2.94241 13.5436 2.09541 12.442 1.89766C11.0595 1.70078 9.53438 1.70078 8.26475 1.89766C6.48588 2.20828 6.20325 2.85753 6.20325 4.04316V5.62428H10.3814V6.13178H4.67813C3.4925 6.13178 2.41975 6.89478 2.10912 8.24928C1.71362 9.83041 1.71362 10.8183 2.10912 12.4563C2.41975 13.6988 3.09787 14.5738 4.3395 14.5738H5.69488V12.682C5.666 11.2987 6.8805 10.113 8.26387 10.113M8.01012 4.55153C7.80182 4.54729 7.60321 4.46271 7.4558 4.31547C7.3084 4.16822 7.2236 3.96971 7.21913 3.76141C7.21913 3.33791 7.58663 2.97041 8.00925 2.97041C8.43188 2.97041 8.80025 3.33791 8.80025 3.76141C8.80025 4.18491 8.43362 4.55153 8.01012 4.55153Z" fill="white"/>
</svg>
