<svg width="21" height="21" viewBox="0 0 21 21" fill="none" xmlns="http://www.w3.org/2000/svg">
<path d="M10.5 8.84709C11.4012 8.84709 12.1362 9.58209 12.1362 10.5008C12.1362 11.3758 11.4012 12.1196 10.5 12.1196C9.59875 12.1196 8.86375 11.3758 8.86375 10.5008C8.86375 9.58209 9.59875 8.84709 10.5 8.84709ZM6.44875 17.5008C7 17.8333 8.2075 17.3258 9.59875 16.0133C9.14375 15.4971 8.6975 14.9371 8.2775 14.3508C7.57244 14.2829 6.87147 14.1777 6.1775 14.0358C5.73125 15.9083 5.8975 17.1946 6.44875 17.5008ZM7.07 12.4783L6.81625 12.0321C6.72 12.2858 6.62375 12.5396 6.5625 12.7846C6.79875 12.8371 7.06125 12.8808 7.3325 12.9246L7.07 12.4783ZM12.7925 11.8133L13.5013 10.5008L12.7925 9.18834C12.53 8.72459 12.25 8.31334 11.9963 7.90209C11.5238 7.87584 11.025 7.87584 10.5 7.87584C9.975 7.87584 9.47625 7.87584 9.00375 7.90209C8.75 8.31334 8.47 8.72459 8.2075 9.18834L7.49875 10.5008L8.2075 11.8133C8.47 12.2771 8.75 12.6883 9.00375 13.0996C9.47625 13.1258 9.975 13.1258 10.5 13.1258C11.025 13.1258 11.5238 13.1258 11.9963 13.0996C12.25 12.6883 12.53 12.2771 12.7925 11.8133ZM10.5 5.93334C10.3337 6.12584 10.1587 6.32709 9.98375 6.56334H11.0163C10.8413 6.32709 10.6663 6.12584 10.5 5.93334ZM10.5 15.0683C10.6663 14.8758 10.8413 14.6746 11.0163 14.4383H9.98375C10.1587 14.6746 10.3337 14.8758 10.5 15.0683ZM14.5425 3.50084C14 3.16834 12.7925 3.67584 11.4012 4.98834C11.8562 5.50459 12.3025 6.06459 12.7225 6.65084C13.44 6.72084 14.1488 6.82584 14.8225 6.96584C15.2688 5.09334 15.1025 3.80709 14.5425 3.50084ZM13.93 8.52334L14.1837 8.96959C14.28 8.71584 14.3763 8.46209 14.4375 8.21709C14.2013 8.16459 13.9388 8.12084 13.6675 8.07709L13.93 8.52334ZM15.1988 2.35459C16.485 3.08959 16.625 5.02334 16.0825 7.28084C18.305 7.93709 19.9062 9.02209 19.9062 10.5008C19.9062 11.9796 18.305 13.0646 16.0825 13.7208C16.625 15.9783 16.485 17.9121 15.1988 18.6471C13.9213 19.3821 12.18 18.5421 10.5 16.9408C8.82 18.5421 7.07875 19.3821 5.7925 18.6471C4.515 17.9121 4.375 15.9783 4.9175 13.7208C2.695 13.0646 1.09375 11.9796 1.09375 10.5008C1.09375 9.02209 2.695 7.93709 4.9175 7.28084C4.375 5.02334 4.515 3.08959 5.7925 2.35459C7.07875 1.61959 8.82 2.45959 10.5 4.06084C12.18 2.45959 13.9213 1.61959 15.1988 2.35459ZM14.945 10.5008C15.2425 11.1571 15.505 11.8133 15.7237 12.4783C17.5612 11.9271 18.5938 11.1396 18.5938 10.5008C18.5938 9.86209 17.5612 9.07459 15.7237 8.52334C15.505 9.18834 15.2425 9.84459 14.945 10.5008ZM6.055 10.5008C5.7575 9.84459 5.495 9.18834 5.27625 8.52334C3.43875 9.07459 2.40625 9.86209 2.40625 10.5008C2.40625 11.1396 3.43875 11.9271 5.27625 12.4783C5.495 11.8133 5.7575 11.1571 6.055 10.5008ZM13.93 12.4783L13.6675 12.9246C13.9388 12.8808 14.2013 12.8371 14.4375 12.7846C14.3763 12.5396 14.28 12.2858 14.1837 12.0321L13.93 12.4783ZM11.4012 16.0133C12.7925 17.3258 14 17.8333 14.5425 17.5008C15.1025 17.1946 15.2688 15.9083 14.8225 14.0358C14.1488 14.1758 13.44 14.2808 12.7225 14.3508C12.3025 14.9371 11.8562 15.4971 11.4012 16.0133ZM7.07 8.52334L7.3325 8.07709C7.06125 8.12084 6.79875 8.16459 6.5625 8.21709C6.62375 8.46209 6.72 8.71584 6.81625 8.96959L7.07 8.52334ZM9.59875 4.98834C8.2075 3.67584 7 3.16834 6.44875 3.50084C5.8975 3.80709 5.73125 5.09334 6.1775 6.96584C6.87147 6.82396 7.57244 6.71881 8.2775 6.65084C8.6975 6.06459 9.14375 5.50459 9.59875 4.98834Z" fill="white"/>
</svg>
