<svg width="31" height="29" viewBox="0 0 31 29" fill="none" xmlns="http://www.w3.org/2000/svg">
<path d="M1 1H5L9 15.6667M9 15.6667L7.66667 21H27.6667M9 15.6667H25L29 3.66667H5.72667L9 15.6667ZM9 26.3333C9 26.687 8.85952 27.0261 8.60948 27.2761C8.35943 27.5262 8.02029 27.6667 7.66667 27.6667C7.31304 27.6667 6.97391 27.5262 6.72386 27.2761C6.47381 27.0261 6.33333 26.687 6.33333 26.3333C6.33333 25.9797 6.47381 25.6406 6.72386 25.3905C6.97391 25.1405 7.31304 25 7.66667 25C8.02029 25 8.35943 25.1405 8.60948 25.3905C8.85952 25.6406 9 25.9797 9 26.3333ZM27.6667 26.3333C27.6667 26.687 27.5262 27.0261 27.2761 27.2761C27.0261 27.5262 26.687 27.6667 26.3333 27.6667C25.9797 27.6667 25.6406 27.5262 25.3905 27.2761C25.1405 27.0261 25 26.687 25 26.3333C25 25.9797 25.1405 25.6406 25.3905 25.3905C25.6406 25.1405 25.9797 25 26.3333 25C26.687 25 27.0261 25.1405 27.2761 25.3905C27.5262 25.6406 27.6667 25.9797 27.6667 26.3333Z" stroke="#0E90CF" stroke-width="2" stroke-linecap="square"/>
</svg>
