<svg width="21" height="21" viewBox="0 0 21 21" fill="none" xmlns="http://www.w3.org/2000/svg">
<path d="M17.6794 14.3449C15.519 17.2228 10.906 16.2516 7.94763 16.3907C7.94763 16.3907 7.4235 16.4204 6.89675 16.5071C6.89675 16.5071 7.09625 16.4222 7.35088 16.3338C9.42813 15.6154 10.4099 15.4711 11.6725 14.8227C14.0438 13.6082 16.4045 10.9613 16.8849 8.21206C15.9819 10.8563 13.2361 13.1322 10.7363 14.0562C9.02563 14.6879 5.93075 15.3022 5.92988 15.3022L5.80475 15.2357C3.70038 14.2119 3.63913 9.65319 7.462 8.18406C9.1385 7.54006 10.7406 7.89356 12.5528 7.46219C14.4848 7.00281 16.723 5.55469 17.6321 3.66119C18.6515 6.68694 19.8765 11.4189 17.6794 14.3449ZM17.7161 2.72494C17.4718 3.31101 17.159 3.86612 16.7843 4.37869C15.9698 3.53917 14.9951 2.87182 13.9178 2.41624C12.8406 1.96065 11.6828 1.72612 10.5131 1.72656C5.6805 1.72656 1.75 5.65706 1.75 10.4888C1.74928 11.6941 1.99807 12.8865 2.4807 13.9909C2.96334 15.0953 3.66938 16.0879 4.55438 16.9061L4.74688 17.0758C4.60657 16.9353 4.52781 16.7448 4.52794 16.5462C4.52806 16.3476 4.60705 16.1572 4.74753 16.0168C4.88802 15.8764 5.0785 15.7976 5.27709 15.7976C5.47569 15.7977 5.66613 15.8766 5.80656 16.017C5.94699 16.1574 6.0259 16.3479 6.02594 16.5465C6.02598 16.7451 5.94715 16.9355 5.80678 17.076C5.66641 17.2165 5.47599 17.2955 5.2774 17.2956C5.07881 17.2958 4.88829 17.217 4.74775 17.0767L4.87813 17.1922C6.45348 18.5241 8.45021 19.2539 10.5131 19.2519C15.1314 19.2519 18.9245 15.6574 19.2491 11.1214C19.4889 8.89981 18.8326 6.07881 17.7161 2.72494Z" fill="white"/>
</svg>
