<svg width="35" height="35" viewBox="0 0 35 35" fill="none" xmlns="http://www.w3.org/2000/svg">
<path d="M17.4974 29.166C20.5916 29.166 23.559 27.9369 25.747 25.7489C27.9349 23.561 29.1641 20.5935 29.1641 17.4993C29.1641 14.4052 27.9349 11.4377 25.747 9.24977C23.559 7.06185 20.5916 5.83268 17.4974 5.83268C14.4032 5.83268 11.4357 7.06185 9.24782 9.24977C7.05989 11.4377 5.83073 14.4052 5.83073 17.4993C5.83073 20.5935 7.05989 23.561 9.24782 25.7489C11.4357 27.9369 14.4032 29.166 17.4974 29.166ZM17.4974 2.91602C19.4125 2.91602 21.3089 3.29322 23.0782 4.02611C24.8475 4.75899 26.4552 5.83319 27.8094 7.18738C29.1636 8.54156 30.2378 10.1492 30.9706 11.9185C31.7035 13.6879 32.0807 15.5842 32.0807 17.4993C32.0807 21.3671 30.5443 25.0764 27.8094 27.8113C25.0745 30.5462 21.3651 32.0827 17.4974 32.0827C9.43281 32.0827 2.91406 25.5202 2.91406 17.4993C2.91406 13.6316 4.45052 9.92228 7.18542 7.18738C9.92033 4.45247 13.6297 2.91602 17.4974 2.91602ZM18.2266 10.2077V17.8639L24.7891 21.7577L23.6953 23.5514L16.0391 18.9577V10.2077H18.2266Z" fill="#0E90CF"/>
</svg>
