<svg width="70" height="70" viewBox="0 0 50 50" fill="none" xmlns="http://www.w3.org/2000/svg">
<path d="M24.9974 25.0007C27.2075 25.0007 29.3271 24.1227 30.89 22.5599C32.4528 20.9971 33.3307 18.8775 33.3307 16.6673C33.3307 14.4572 32.4528 12.3376 30.89 10.7748C29.3271 9.21196 27.2075 8.33398 24.9974 8.33398C22.7873 8.33398 20.6676 9.21196 19.1048 10.7748C17.542 12.3376 16.6641 14.4572 16.6641 16.6673C16.6641 18.8775 17.542 20.9971 19.1048 22.5599C20.6676 24.1227 22.7873 25.0007 24.9974 25.0007Z" stroke="#08D874" stroke-width="3" stroke-linecap="round" stroke-linejoin="round"/>
<path d="M10.4141 41.6677V39.5844C10.4136 37.1239 11.0356 34.7033 12.2223 32.5479C13.4089 30.3925 15.1217 28.5724 17.201 27.257C19.2803 25.9416 21.6587 25.1737 24.1147 25.0248C26.5706 24.8759 29.0243 25.3507 31.2474 26.4052M34.6536 34.199L36.8182 29.6094C36.8768 29.4782 36.9721 29.3668 37.0926 29.2886C37.2131 29.2104 37.3537 29.1688 37.4974 29.1688C37.6411 29.1688 37.7817 29.2104 37.9022 29.2886C38.0227 29.3668 38.118 29.4782 38.1766 29.6094L40.3432 34.199L45.1828 34.9406C45.8036 35.0344 46.0495 35.8344 45.5995 36.2927L42.0995 39.8615L42.9245 44.9052C43.0307 45.5531 42.3828 46.0469 41.8266 45.7406L37.4974 43.3594L33.1682 45.7406C32.612 46.0469 31.9641 45.5531 32.0703 44.9073L32.8953 39.8615L29.3953 36.2927C28.9453 35.8344 29.1911 35.0344 29.812 34.9386L34.6536 34.199Z" stroke="#08D874" stroke-width="3" stroke-linecap="round" stroke-linejoin="round"/>
</svg>

