<svg width="50" height="50" viewBox="0 0 50 50" fill="none" xmlns="http://www.w3.org/2000/svg">
<path d="M5.21569 43.9912C5.21718 44.0979 5.23968 44.2032 5.2819 44.3012C5.32412 44.3992 5.38523 44.488 5.46174 44.5624C5.53825 44.6367 5.62867 44.6953 5.72783 44.7348C5.82699 44.7742 5.93294 44.7937 6.03964 44.7922H43.9636C44.0704 44.7939 44.1764 44.7744 44.2757 44.7351C44.375 44.6957 44.4655 44.6371 44.5422 44.5627C44.6188 44.4883 44.68 44.3996 44.7223 44.3015C44.7646 44.2034 44.7871 44.098 44.7886 43.9912V43.0349C44.8073 42.7464 44.8459 41.3089 43.898 39.7183C43.3001 38.7151 42.4323 37.8495 41.3188 37.1432C39.9719 36.2891 38.2584 35.6714 36.1855 35.2995C35.1331 35.1519 34.0893 34.9488 33.0584 34.6912C30.3167 33.9912 30.0771 33.3714 30.0751 33.3651C30.0589 33.304 30.0358 33.245 30.0063 33.1891C29.9834 33.0745 29.9282 32.6391 30.0344 31.4735C30.3032 28.512 31.8917 26.762 33.1678 25.3557C33.5698 24.913 33.9501 24.4932 34.2428 24.0828C35.5063 22.312 35.623 20.2964 35.6282 20.1714C35.6329 19.9499 35.6024 19.7291 35.5376 19.5172C35.4126 19.1318 35.1803 18.8922 35.0094 18.7151C34.9691 18.6745 34.9298 18.6329 34.8917 18.5901C34.8792 18.5755 34.8459 18.536 34.8761 18.337C34.9783 17.6961 35.0488 17.0505 35.0876 16.4026C35.1459 15.3589 35.1907 13.7985 34.9209 12.2787C34.8814 11.9884 34.8215 11.7012 34.7417 11.4193C34.4584 10.3728 34.0001 9.4804 33.3667 8.7422C33.2573 8.62241 30.6032 5.82554 22.898 5.25262C21.8323 5.17345 20.7792 5.21616 19.7417 5.26929C19.4349 5.27618 19.1296 5.31387 18.8303 5.38179C18.0344 5.587 17.8219 6.09116 17.7667 6.37345C17.674 6.8422 17.8365 7.2047 17.9438 7.44637C17.9594 7.48075 17.9792 7.52345 17.9449 7.63595C17.7667 7.91304 17.4844 8.16304 17.198 8.3995C17.1146 8.46929 15.1834 10.136 15.0771 12.312C14.7907 13.9672 14.8115 16.5453 15.1501 18.3276C15.1709 18.4266 15.199 18.5724 15.1521 18.6714C14.7876 18.9974 14.3751 19.3672 14.3761 20.211C14.3803 20.2964 14.498 22.311 15.7615 24.0828C16.0532 24.4932 16.4334 24.912 16.8344 25.3547L16.8365 25.3557C18.1126 26.762 19.7011 28.512 19.9698 31.4724C20.0751 32.6391 20.0199 33.0735 19.998 33.1891C19.9681 33.2449 19.9447 33.304 19.9282 33.3651C19.9271 33.3714 19.6886 33.9891 16.9594 34.688C15.3844 35.0912 13.8344 35.2974 13.7876 35.3026C11.773 35.6432 10.0699 36.2464 8.72506 37.0953C7.61569 37.7964 6.74589 38.6651 6.14173 39.6755C5.17506 41.2901 5.2011 42.761 5.21464 43.0297L5.21569 43.9912Z" fill="#0E90CF" stroke="#0E90CF" stroke-width="2" stroke-linejoin="round"/>
</svg>
