<svg width="80" height="71" viewBox="0 0 80 71" fill="none" xmlns="http://www.w3.org/2000/svg">
<path d="M37.3472 11.8148L21.1528 29.7867C20.5139 30.4939 20.5417 31.5895 21.2222 32.2689C25.4583 36.4984 32.3333 36.4984 36.5694 32.2689L40.9861 27.8592C41.5694 27.2768 42.3056 26.9578 43.0556 26.9023C44 26.8191 44.9722 27.1381 45.6944 27.8592L70.2222 52.1406L80 44.375V4.4375L64.4445 13.3125L61.1389 11.1076C58.9457 9.65111 56.3702 8.87437 53.7361 8.875H43.9583C43.8056 8.875 43.6389 8.875 43.4861 8.88887C41.1389 9.01367 38.9306 10.0676 37.3472 11.8148ZM16.1944 25.3354L31.0278 8.875H25.5278C21.9861 8.875 18.5972 10.2756 16.0972 12.7717L15.5556 13.3125L0 4.4375V44.375L21.7222 62.4439C24.9167 65.1064 28.9444 66.5625 33.0972 66.5625H35.2778L34.3056 65.5918C33 64.2883 33 62.1805 34.3056 60.8908C35.6111 59.6012 37.7222 59.5873 39.0139 60.8908L44.7083 66.5764H45.9583C48.6111 66.5764 51.2083 65.9801 53.5695 64.8707L49.8611 61.1543C48.5556 59.8508 48.5556 57.743 49.8611 56.4533C51.1667 55.1637 53.2778 55.1498 54.5694 56.4533L59.0139 60.8908L61.4444 58.4641C62.6806 57.2299 63.0417 55.441 62.5 53.874L43.3472 34.9037L41.2778 36.9699C34.4306 43.8064 23.3472 43.8064 16.5 36.9699C13.3056 33.7805 13.1806 28.6635 16.1944 25.3215V25.3354Z" fill="white"/>
</svg>
