<svg width="50" height="50" viewBox="0 0 50 50" fill="none" xmlns="http://www.w3.org/2000/svg">
<path d="M44.1628 18.5665C44.0829 18.5261 43.8632 18.5261 43.7833 18.4857C43.7034 18.4453 43.4038 18.4453 43.264 18.4453C42.4053 18.4453 41.7861 18.7887 41.4466 19.3948L36.8931 26.9906L31.1612 27.0916C30.2226 27.0916 29.4237 27.8593 29.4237 28.8492C29.4237 29.1118 29.4836 29.3542 29.5835 29.5764H20.3966C20.4964 29.3542 20.5563 29.1118 20.5563 28.8492C20.5563 27.8593 19.7575 27.0916 18.8188 27.0916H13.0869L8.53342 19.3948C8.19391 18.7887 7.55482 18.4453 6.71601 18.4453C6.59618 18.4453 6.29661 18.4453 6.19675 18.4857C6.11686 18.5261 5.89717 18.5261 5.81729 18.5665C-0.0144193 19.92 -0.0343906 32.5057 0.00555261 34.9096C0.00555261 37.1116 0.764473 38.0813 2.34223 38.6874C2.72169 38.8692 3.20101 38.95 3.58047 38.95H13.6062V47.7175C13.6062 49.0104 14.5848 50.0003 15.863 50.0003C17.1412 50.0003 18.1198 49.0104 18.1198 47.7175V36.748C18.1198 36.1419 17.8602 35.4955 17.4408 35.1117C16.9814 34.647 16.3823 34.3844 15.8231 34.3844H9.13257V29.3138L5.65751 23.3341C5.47777 23.0715 5.57763 22.7685 5.77734 22.6473C6.03697 22.4654 6.33655 22.5664 6.45638 22.7685L10.4906 29.6976C10.5106 29.738 10.5506 29.7784 10.5705 29.839V33.0107H39.4095V29.839C39.4495 29.7986 39.4694 29.7582 39.4894 29.6976L43.5237 22.7685C43.6435 22.5462 43.9431 22.4654 44.2027 22.6473C44.4224 22.7685 44.5023 23.0715 44.3225 23.3341L40.8475 29.3138V34.3844H34.177C33.6177 34.3844 33.0386 34.647 32.5593 35.1117C32.1399 35.4955 31.8802 36.1419 31.8802 36.748V47.7175C31.8802 49.0104 32.8588 50.0003 34.137 50.0003C35.4152 50.0003 36.3938 49.0104 36.3938 47.7175V38.95H46.4195C46.799 38.95 47.2783 38.8692 47.6578 38.6874C49.2355 38.0813 49.9945 37.1116 49.9945 34.9096C50.0344 32.5259 50.0144 19.92 44.1628 18.5665Z" fill="#00AEFF"/>
<path d="M43.5531 15.7927C44.4058 13.7104 43.4283 11.3233 41.3698 10.4608C39.3113 9.59827 36.9513 10.587 36.0986 12.6693C35.2459 14.7515 36.2234 17.1386 38.2819 18.0011C40.3404 18.8636 42.7004 17.8749 43.5531 15.7927Z" fill="#00AEFF"/>
<path d="M13.8734 15.7946C14.7261 13.7124 13.7486 11.3252 11.6901 10.4627C9.63157 9.60023 7.27159 10.589 6.41891 12.6712C5.56623 14.7534 6.54375 17.1406 8.60226 18.0031C10.6608 18.8656 13.0207 17.8768 13.8734 15.7946Z" fill="#00AEFF"/>
<path d="M22.3721 12.8897V13.0109H24.6089H25.3878H27.6246V12.8897C27.6246 11.5968 28.1239 10.3443 29.0226 9.39483C29.9413 8.40495 30.5205 7.05144 30.5205 5.57672C30.5205 2.46567 27.9841 -0.0595364 24.8885 0.00106856C21.8728 0.0818751 19.4762 2.62728 19.5161 5.65753C19.5361 7.09184 20.0953 8.40495 21.014 9.37463C21.8528 10.3443 22.3721 11.5766 22.3721 12.8897Z" fill="#00AEFF"/>
<path d="M27.6275 13.7988H22.375V14.8493H27.6275V13.7988Z" fill="#00AEFF"/>
<path d="M24.211 16.9915H25.7888C26.3679 16.9915 26.8473 16.5067 26.8473 15.9208V15.6582H23.1725V15.9208C23.1525 16.5067 23.6318 16.9915 24.211 16.9915Z" fill="#00AEFF"/>
</svg>
