<svg width="50" height="50" viewBox="0 0 50 50" fill="none" xmlns="http://www.w3.org/2000/svg">
<path d="M25 14.0625C26.036 14.0625 27.0296 13.6509 27.7621 12.9184C28.4947 12.1858 28.9062 11.1923 28.9062 10.1562C28.9062 9.12025 28.4947 8.12668 27.7621 7.39411C27.0296 6.66155 26.036 6.25 25 6.25C23.964 6.25 22.9704 6.66155 22.2379 7.39411C21.5053 8.12668 21.0938 9.12025 21.0938 10.1562C21.0938 11.1923 21.5053 12.1858 22.2379 12.9184C22.9704 13.6509 23.964 14.0625 25 14.0625Z" fill="#0E90CF"/>
<path d="M25 14.0625C26.8656 14.0625 28.5312 15.2563 29.125 17.0281L29.3969 17.8406C29.4323 17.9446 29.4423 18.0555 29.4261 18.1641C29.4099 18.2727 29.3679 18.3758 29.3037 18.4648C29.2394 18.5539 29.1548 18.6262 29.0568 18.6758C28.9588 18.7255 28.8504 18.7509 28.7406 18.75H21.2719C21.1625 18.7495 21.0549 18.7232 20.9577 18.6732C20.8605 18.6232 20.7764 18.5509 20.7125 18.4622C20.6485 18.3736 20.6064 18.2711 20.5895 18.163C20.5727 18.055 20.5816 17.9445 20.6156 17.8406L20.8875 17.0281C21.1768 16.1634 21.7309 15.4116 22.4712 14.8794C23.2116 14.3471 24.1007 14.0613 25.0125 14.0625H25ZM15.625 26.5625C15.625 26.1481 15.7896 25.7507 16.0826 25.4576C16.3757 25.1646 16.7731 25 17.1875 25H32.8125C33.2269 25 33.6243 25.1646 33.9174 25.4576C34.2104 25.7507 34.375 26.1481 34.375 26.5625C34.375 26.9769 34.2104 27.3743 33.9174 27.6674C33.6243 27.9604 33.2269 28.125 32.8125 28.125H17.1875C16.7731 28.125 16.3757 27.9604 16.0826 27.6674C15.7896 27.3743 15.625 26.9769 15.625 26.5625ZM15.625 32.8125C15.625 32.3981 15.7896 32.0007 16.0826 31.7076C16.3757 31.4146 16.7731 31.25 17.1875 31.25H32.8125C33.2269 31.25 33.6243 31.4146 33.9174 31.7076C34.2104 32.0007 34.375 32.3981 34.375 32.8125C34.375 33.2269 34.2104 33.6243 33.9174 33.9174C33.6243 34.2104 33.2269 34.375 32.8125 34.375H17.1875C16.7731 34.375 16.3757 34.2104 16.0826 33.9174C15.7896 33.6243 15.625 33.2269 15.625 32.8125ZM17.1875 37.5C16.7731 37.5 16.3757 37.6646 16.0826 37.9576C15.7896 38.2507 15.625 38.6481 15.625 39.0625C15.625 39.4769 15.7896 39.8743 16.0826 40.1674C16.3757 40.4604 16.7731 40.625 17.1875 40.625H23.4375C23.8519 40.625 24.2493 40.4604 24.5424 40.1674C24.8354 39.8743 25 39.4769 25 39.0625C25 38.6481 24.8354 38.2507 24.5424 37.9576C24.2493 37.6646 23.8519 37.5 23.4375 37.5H17.1875Z" fill="#0E90CF"/>
<path fill-rule="evenodd" clip-rule="evenodd" d="M7.27969 5.12539C6.25781 7.13164 6.25781 9.75039 6.25781 15.0004V35.0004C6.25781 40.2504 6.25781 42.8754 7.27969 44.8754C8.18168 46.6352 9.61367 48.0671 11.3734 48.9691C13.3797 49.991 15.9984 49.991 21.2484 49.991H28.7484C33.9984 49.991 36.6234 49.991 38.6234 48.9691C40.3857 48.0706 41.8187 46.6377 42.7172 44.8754C43.7391 42.8691 43.7391 40.2504 43.7391 35.0004V15.0004C43.7391 9.75039 43.7391 7.12539 42.7172 5.12539C41.8187 3.36309 40.3857 1.93016 38.6234 1.03164C36.6172 0.00976572 33.9984 0.00976562 28.7484 0.00976562H21.2484C15.9984 0.00976562 13.3734 0.00976572 11.3734 1.03164C9.61367 1.93364 8.18168 3.36562 7.27969 5.12539ZM28.7484 3.13164H21.2484C18.5703 3.13164 16.7484 3.13164 15.3422 3.25039C13.9734 3.35977 13.2703 3.56289 12.7828 3.81289C11.6069 4.41209 10.6508 5.36818 10.0516 6.54414C9.80156 7.03164 9.59844 7.73164 9.48906 9.10352C9.37344 10.5098 9.37031 12.3223 9.37031 15.0098V35.0098C9.37031 37.6879 9.37344 39.5098 9.48906 40.916C9.60156 42.2848 9.80469 42.9879 10.0516 43.4754C10.6516 44.6504 11.6078 45.6066 12.7828 46.2066C13.2703 46.4566 13.9734 46.6598 15.3422 46.7691C16.7484 46.8816 18.5609 46.8848 21.2484 46.8848H28.7484C31.4266 46.8848 33.2484 46.8848 34.6547 46.7691C36.0234 46.6566 36.7266 46.4535 37.2141 46.2066C38.3891 45.6066 39.3453 44.6504 39.9453 43.4754C40.1953 42.9879 40.3984 42.2848 40.5078 40.9129C40.6234 39.5066 40.6266 37.6941 40.6266 35.0066V15.0066C40.6266 12.3316 40.6234 10.5066 40.5078 9.10039C40.3953 7.73477 40.1922 7.03164 39.9453 6.54414C39.3461 5.36818 38.39 4.41209 37.2141 3.81289C36.7266 3.56289 36.0234 3.35977 34.6547 3.25039C33.2484 3.13477 31.4359 3.13164 28.7484 3.13164Z" fill="#0E90CF"/>
</svg>
