<svg width="50" height="50" viewBox="0 0 50 50" fill="none" xmlns="http://www.w3.org/2000/svg">
<path d="M9.75529 6.25C9.65169 6.25 9.55233 6.29115 9.47908 6.36441C9.40582 6.43767 9.36466 6.53702 9.36466 6.64062V27.7344C9.36466 27.95 9.53966 28.125 9.75529 28.125H40.235C40.3386 28.125 40.4379 28.0838 40.5112 28.0106C40.5844 27.9373 40.6256 27.838 40.6256 27.7344V6.64062C40.6256 6.53702 40.5844 6.43767 40.5112 6.36441C40.4379 6.29115 40.3386 6.25 40.235 6.25H9.75529ZM41.0459 33.25L42.1709 38.3281C42.1895 38.4145 42.1886 38.504 42.1682 38.59C42.1479 38.676 42.1085 38.7564 42.0531 38.8253C41.9977 38.8941 41.9277 38.9498 41.848 38.9881C41.7684 39.0265 41.6812 39.0465 41.5928 39.0469H8.39591C8.02091 39.0469 7.73966 38.6875 7.81779 38.3281L8.94279 33.25C9.00529 32.9844 9.23966 32.7969 9.52091 32.7969H40.4693C40.7506 32.7969 40.985 32.9844 41.0475 33.25M16.899 43.7344H33.0897C33.3397 43.7344 33.5272 43.5 33.4647 43.25L32.8709 40.9062C32.849 40.8228 32.8005 40.7488 32.7329 40.6953C32.6653 40.6418 32.5821 40.6116 32.4959 40.6094H17.4928C17.3209 40.6094 17.1647 40.7344 17.1178 40.9062L16.524 43.25C16.4615 43.5 16.649 43.7344 16.899 43.7344Z" fill="#0E90CF"/>
<path d="M48.3849 44.8203L45.313 30.3125V4.6875C45.313 4.27699 45.2322 3.8705 45.075 3.49125C44.9179 3.11201 44.6875 2.76744 44.3972 2.47724C44.1068 2.18704 43.7622 1.95688 43.3828 1.79993C43.0035 1.64297 42.597 1.5623 42.1865 1.5625H7.8021C6.97329 1.5625 6.17844 1.89174 5.59239 2.47779C5.00634 3.06384 4.6771 3.8587 4.6771 4.6875V30.3125L1.61616 44.8203C1.5769 45.0294 1.5591 45.242 1.56303 45.4547C1.56344 46.244 1.87655 47.0011 2.43382 47.5601C2.99109 48.1191 3.74713 48.4346 4.53647 48.4375H45.4537C46.2444 48.4359 47.0023 48.1211 47.5616 47.5621C48.1208 47.0031 48.436 46.2454 48.438 45.4547C48.438 45.2516 48.4287 45.0187 48.3849 44.8203ZM42.1865 4.6875V29.6875H7.8021V4.6875H42.1865ZM45.2833 45.3125H4.70366L7.67085 31.25H42.3162L45.2833 45.3125Z" fill="#0E90CF"/>
</svg>
