<svg width="160" height="50" viewBox="0 0 160 50" fill="none" xmlns="http://www.w3.org/2000/svg">
<g clip-path="url(#clip0_2458_7715)">
<mask id="mask0_2458_7715" style="mask-type:luminance" maskUnits="userSpaceOnUse" x="0" y="0" width="160" height="50">
<path d="M160 0H0V50H160V0Z" fill="white"/>
</mask>
<g mask="url(#mask0_2458_7715)">
<mask id="mask1_2458_7715" style="mask-type:luminance" maskUnits="userSpaceOnUse" x="0" y="0" width="160" height="50">
<path d="M160 0H0V50H160V0Z" fill="white"/>
</mask>
<g mask="url(#mask1_2458_7715)">
<path d="M42.1402 41.0176V41.3632H40.9913V45.2676H40.6795V41.3632H39.543V41.0176H42.1402Z" fill="#134780"/>
<path d="M47.3816 41.0176V41.3632H45.4264V42.8988H47.2568V43.2435H45.4264V44.9221H47.4043V45.2676H45.1133V41.0185L47.3816 41.0176Z" fill="#134780"/>
<path d="M52.7727 41.8644C52.7125 41.7386 52.6346 41.6282 52.5431 41.5394C52.3576 41.3625 52.1327 41.2686 51.9025 41.2716C51.7078 41.2652 51.515 41.3201 51.3404 41.4314C51.1887 41.5331 51.0573 41.6789 50.9562 41.8573C50.8552 42.0381 50.7802 42.2411 50.7349 42.4564C50.6398 42.9037 50.6398 43.3759 50.7349 43.8233C50.78 44.0393 50.8549 44.2429 50.9562 44.4242C51.0577 44.6018 51.1891 44.7471 51.3404 44.8492C51.5145 44.9628 51.7076 45.0187 51.9025 45.0117C52.0448 45.0144 52.1859 44.9776 52.3162 44.9037C52.4356 44.8357 52.5429 44.7367 52.6314 44.6126C52.7241 44.4872 52.7978 44.3403 52.8487 44.1796C52.9049 44.0091 52.9405 43.8284 52.9541 43.6439H53.2666C53.2488 43.8882 53.2009 44.1273 53.1245 44.3519C53.0566 44.5522 52.9599 44.734 52.8396 44.8876C52.721 45.0367 52.5803 45.1529 52.4259 45.2296C52.2575 45.3102 52.0792 45.3504 51.8997 45.3483C51.666 45.3556 51.434 45.2946 51.2211 45.1698C51.035 45.0558 50.8704 44.8911 50.7383 44.6867C50.607 44.4795 50.5089 44.2407 50.4494 43.9841C50.319 43.4367 50.319 42.8511 50.4494 42.3037C50.5093 42.0468 50.6074 41.8074 50.7383 41.5992C50.8694 41.3921 51.0342 41.225 51.2211 41.1099C51.4338 40.9844 51.6659 40.9233 51.8997 40.9314C52.055 40.9304 52.2095 40.9605 52.3576 41.0206C52.5034 41.0787 52.6402 41.1693 52.7617 41.2886C52.883 41.4052 52.9858 41.5511 53.0645 41.7179C53.149 41.8972 53.202 42.0984 53.2197 42.3073H52.9073C52.8807 42.1526 52.8341 42.005 52.7694 41.8706L52.7727 41.8644Z" fill="#134780"/>
<path d="M56.7285 41.0186V42.8632H58.6775V41.0186H58.9899V45.2677H58.6775V43.2088H56.7285V45.2677H56.4141V41.0186H56.7285Z" fill="#134780"/>
<path d="M62.6642 41.0176L64.5787 44.6123H64.5863V41.0176H64.9007V45.2667H64.549L62.636 41.6721H62.627V45.2667H62.3125V41.0176H62.6621H62.6642Z" fill="#134780"/>
<path d="M68.143 42.3011C68.2051 42.0451 68.3033 41.8062 68.4327 41.5967C68.5632 41.3887 68.7282 41.2214 68.9154 41.1074C69.1294 40.9882 69.3598 40.9268 69.5926 40.9268C69.8256 40.9268 70.056 40.9882 70.27 41.1074C70.4573 41.2213 70.6223 41.3885 70.7527 41.5967C70.8839 41.805 70.9827 42.0442 71.0437 42.3011C71.1725 42.8488 71.1725 43.4337 71.0437 43.9814C70.983 44.2379 70.8841 44.4767 70.7527 44.6842C70.6211 44.8892 70.4563 45.0542 70.27 45.1672C70.0582 45.2919 69.8273 45.3529 69.5947 45.3457C69.3611 45.3529 69.1291 45.2919 68.9161 45.1672C68.7298 45.054 68.565 44.889 68.4334 44.6842C68.3037 44.4754 68.2055 44.2371 68.1437 43.9814C68.0151 43.4337 68.0144 42.8488 68.143 42.3011ZM68.4306 43.8234C68.4757 44.0394 68.5507 44.243 68.652 44.4243C68.7534 44.602 68.8848 44.7473 69.0361 44.8493C69.2115 44.9562 69.403 45.0117 69.5968 45.0117C69.7907 45.0117 69.9821 44.9562 70.1575 44.8493C70.3073 44.7464 70.4371 44.6011 70.5375 44.4243C70.6392 44.2436 70.7139 44.0398 70.7575 43.8234C70.8539 43.3763 70.8539 42.9035 70.7575 42.4564C70.7136 42.2407 70.639 42.0376 70.5375 41.8574C70.4378 41.6795 70.3078 41.5336 70.1575 41.4314C69.9839 41.3202 69.7919 41.2653 69.5982 41.2717C69.4036 41.2655 69.2108 41.3203 69.0361 41.4314C68.8845 41.5331 68.7529 41.6789 68.652 41.8574C68.551 42.0382 68.4759 42.2411 68.4306 42.4564C68.3356 42.9038 68.3356 43.376 68.4306 43.8234Z" fill="#134780"/>
<path d="M74.6134 41.0186V44.923H76.4479V45.2686H74.2969V41.0195L74.6134 41.0186Z" fill="#134780"/>
<path d="M79.3621 42.3017C79.4223 42.0447 79.5207 41.8054 79.6517 41.5973C79.7824 41.3894 79.9474 41.2223 80.1345 41.108C80.3484 40.9828 80.5816 40.9217 80.8155 40.9293C81.0479 40.9221 81.2786 40.9831 81.4893 41.108C81.6766 41.222 81.8423 41.3893 81.9725 41.5973C82.1036 41.8054 82.2017 42.0448 82.262 42.3017C82.3906 42.8494 82.3906 43.4343 82.262 43.9821C82.2025 44.2386 82.1036 44.4775 81.9725 44.6848C81.8407 44.8895 81.6758 45.0544 81.4893 45.1678C81.2786 45.2919 81.0479 45.353 80.8155 45.3463C80.5816 45.3533 80.3486 45.2923 80.1345 45.1678C79.9482 45.0545 79.7833 44.8897 79.6517 44.6848C79.5204 44.4775 79.422 44.2386 79.3621 43.9821C79.2335 43.4343 79.2335 42.8494 79.3621 42.3017ZM79.6497 43.824C79.6946 44.04 79.7693 44.2435 79.8704 44.4249C79.9713 44.6031 80.1028 44.7486 80.2545 44.8499C80.428 44.964 80.621 45.0199 80.8155 45.0124C81.0093 45.0197 81.2007 44.9637 81.3735 44.8499C81.5239 44.7476 81.6541 44.6023 81.7546 44.4249C81.8559 44.2435 81.9307 44.04 81.9749 43.824C82.0224 43.6018 82.0457 43.3723 82.0441 43.1418C82.0457 42.9106 82.0224 42.6801 81.9749 42.4571C81.9299 42.2418 81.8551 42.0388 81.7546 41.858C81.6549 41.6797 81.5239 41.5338 81.3735 41.432C81.2007 41.3204 81.0093 41.2655 80.8155 41.2723C80.6218 41.2655 80.4288 41.3203 80.2545 41.432C80.1024 41.533 79.9708 41.6788 79.8704 41.858C79.7696 42.0388 79.6948 42.2418 79.6497 42.4571C79.5509 42.9037 79.5509 43.3774 79.6497 43.824Z" fill="#134780"/>
<path d="M88.0932 45.2674L88.0497 44.4942H88.0417C87.9894 44.6373 87.9195 44.769 87.8351 44.8844C87.7563 44.9914 87.6654 45.0818 87.5657 45.1522C87.4668 45.2239 87.3607 45.2756 87.2505 45.3057C87.1372 45.3372 87.0214 45.353 86.9056 45.3531C86.6716 45.3597 86.4401 45.2987 86.227 45.1745C86.0397 45.0623 85.8749 44.8973 85.7438 44.6915C85.612 44.4846 85.5123 44.2457 85.452 43.9889C85.3233 43.441 85.3233 42.8561 85.452 42.3084C85.5123 42.0511 85.612 41.8118 85.7438 41.604C85.8741 41.3954 86.0389 41.2281 86.227 41.1147C86.4401 40.9898 86.6716 40.9288 86.9056 40.9361C87.0688 40.9344 87.2313 40.9645 87.388 41.0254C87.5368 41.0795 87.6759 41.1704 87.7973 41.2932C87.9187 41.415 88.0216 41.5645 88.102 41.7344C88.1896 41.9221 88.2475 42.1302 88.2725 42.3469H87.9589C87.946 42.2171 87.9147 42.0917 87.8656 41.9772C87.8101 41.8471 87.7362 41.7312 87.6485 41.6352C87.5521 41.5267 87.4427 41.4402 87.3237 41.3799C87.1886 41.313 87.0455 41.28 86.9016 41.2826C86.707 41.2765 86.5141 41.3314 86.3396 41.4424C86.1884 41.5442 86.0566 41.6899 85.9561 41.8682C85.8548 42.0485 85.7808 42.2518 85.7374 42.4674C85.6393 42.9142 85.6393 43.3875 85.7374 43.8344C85.78 44.0506 85.8548 44.2544 85.9561 44.4352C86.0574 44.6128 86.1884 44.7581 86.3396 44.8602C86.5141 44.9736 86.707 45.0295 86.9016 45.0227C87.0664 45.0259 87.2312 44.9855 87.384 44.904C87.5215 44.8336 87.6453 44.7233 87.7458 44.5817C87.8455 44.4389 87.9219 44.2707 87.9685 44.0879C88.0168 43.8856 88.0401 43.6747 88.0377 43.4629H86.9193V43.1174H88.3127V45.2781H88.0891L88.0932 45.2674Z" fill="#134780"/>
<path d="M91.2148 41.0186H91.5839L92.6645 43.173L93.7419 41.0186H94.1133L92.8164 43.5186V45.2686H92.5045V43.5186L91.2148 41.0186Z" fill="#134780"/>
<path d="M101.238 44.4162C101.291 44.5565 101.369 44.6774 101.467 44.7679C101.571 44.8591 101.689 44.9225 101.812 44.9546C101.951 44.9926 102.092 45.0117 102.234 45.0117C102.329 45.0098 102.423 44.9934 102.514 44.9626C102.615 44.9329 102.711 44.8816 102.799 44.8109C102.884 44.7415 102.958 44.6503 103.015 44.5429C103.076 44.4268 103.108 44.2883 103.104 44.1474C103.107 44.0382 103.084 43.9301 103.041 43.8367C102.999 43.7491 102.944 43.6735 102.88 43.6144C102.813 43.5541 102.739 43.5054 102.661 43.4698C102.583 43.4341 102.504 43.4028 102.427 43.3804L101.695 43.1501C101.602 43.1172 101.509 43.0773 101.419 43.0304C101.332 42.9848 101.253 42.9201 101.183 42.8394C101.114 42.7582 101.058 42.659 101.02 42.5484C100.976 42.414 100.955 42.2691 100.959 42.1234C100.96 42.0003 100.975 41.8782 101.004 41.7609C101.037 41.6149 101.095 41.4805 101.175 41.3679C101.272 41.2341 101.389 41.1274 101.519 41.0546C101.699 40.9624 101.891 40.9192 102.084 40.9278C102.242 40.9261 102.399 40.9544 102.55 41.0117C102.69 41.0619 102.821 41.1468 102.936 41.2617C103.046 41.3741 103.136 41.5152 103.2 41.6761C103.268 41.8535 103.302 42.05 103.299 42.2484H102.984C102.981 42.1005 102.953 41.9553 102.902 41.8234C102.853 41.7046 102.784 41.6009 102.702 41.5189C102.618 41.435 102.523 41.3725 102.421 41.3349C102.313 41.2921 102.202 41.271 102.088 41.2724C101.984 41.2722 101.88 41.2872 101.778 41.3171C101.685 41.3427 101.596 41.3916 101.517 41.4609C101.441 41.5271 101.378 41.6154 101.333 41.7189C101.284 41.8425 101.261 41.9801 101.264 42.1189C101.263 42.2074 101.277 42.295 101.305 42.3761C101.329 42.4485 101.366 42.513 101.412 42.5653C101.459 42.6161 101.513 42.6575 101.57 42.6886C101.632 42.7223 101.697 42.7484 101.763 42.7662L102.562 43.0224C102.674 43.0596 102.785 43.1086 102.891 43.1689C102.99 43.2225 103.08 43.2947 103.162 43.3832C103.24 43.4687 103.304 43.5752 103.347 43.6957C103.395 43.8364 103.418 43.9887 103.416 44.1421C103.416 44.1876 103.412 44.2511 103.406 44.3314C103.395 44.4182 103.375 44.5032 103.351 44.5849C103.317 44.6802 103.275 44.7702 103.226 44.8528C103.165 44.9525 103.09 45.0367 103.005 45.1011C102.896 45.1828 102.779 45.243 102.656 45.2796C102.493 45.3294 102.327 45.3528 102.161 45.3492C101.979 45.3494 101.798 45.3194 101.622 45.2599C101.469 45.2085 101.325 45.1173 101.2 44.9921C101.082 44.8712 100.989 44.7141 100.93 44.5349C100.864 44.3207 100.838 44.0898 100.851 43.8599H101.161C101.154 44.0488 101.181 44.2372 101.241 44.4099L101.238 44.4162Z" fill="#134780"/>
<path d="M106.495 42.301C106.557 42.0442 106.656 41.8051 106.787 41.5965C106.917 41.3876 107.082 41.2202 107.27 41.1073C107.483 40.9881 107.714 40.9268 107.946 40.9268C108.179 40.9268 108.408 40.9881 108.622 41.1073C108.809 41.2221 108.974 41.3892 109.105 41.5965C109.235 41.8053 109.334 42.0444 109.395 42.301C109.524 42.8487 109.524 43.4336 109.395 43.9813C109.334 44.2376 109.236 44.4761 109.105 44.684C108.973 44.8882 108.808 45.053 108.622 45.1671C108.409 45.2876 108.179 45.3499 107.946 45.3499C107.713 45.3499 107.483 45.2876 107.27 45.1671C107.083 45.0553 106.918 44.8901 106.787 44.684C106.656 44.4763 106.556 44.2378 106.495 43.9813C106.366 43.4336 106.366 42.8487 106.495 42.301ZM106.784 43.8233C106.828 44.0396 106.902 44.2433 107.003 44.4242C107.104 44.6018 107.235 44.7472 107.387 44.8492C107.561 44.9622 107.754 45.0179 107.949 45.0117C108.142 45.0183 108.335 44.9625 108.507 44.8492C108.659 44.7472 108.789 44.6018 108.889 44.4242C108.991 44.2429 109.065 44.0393 109.11 43.8233C109.205 43.3759 109.205 42.9037 109.11 42.4563C109.065 42.241 108.99 42.0381 108.889 41.8573C108.79 41.6786 108.659 41.5328 108.507 41.4313C108.335 41.32 108.142 41.2652 107.949 41.2716C107.754 41.2658 107.562 41.3206 107.387 41.4313C107.235 41.5331 107.104 41.6788 107.003 41.8573C106.902 42.0375 106.828 42.2407 106.784 42.4563C106.689 42.9037 106.689 43.3759 106.784 43.8233Z" fill="#134780"/>
<path d="M112.965 41.0186V44.923H114.803V45.2686H112.652V41.0195L112.965 41.0186Z" fill="#134780"/>
<path d="M118.067 41.0186V43.649C118.064 43.8602 118.085 44.0707 118.13 44.274C118.167 44.4318 118.233 44.5762 118.321 44.6954C118.405 44.8058 118.509 44.8882 118.623 44.9355C118.754 44.9873 118.891 45.0123 119.028 45.0097C119.168 45.0128 119.307 44.9878 119.441 44.9355C119.556 44.8885 119.66 44.8061 119.745 44.6954C119.832 44.5768 119.897 44.4321 119.933 44.274C119.979 44.0712 120 43.8603 119.997 43.649V41.0186H120.309V43.7392C120.311 43.9494 120.288 44.1588 120.241 44.3597C120.196 44.5509 120.118 44.727 120.014 44.8749C119.905 45.0284 119.769 45.1478 119.62 45.224C119.432 45.3151 119.233 45.3588 119.033 45.3525C118.834 45.3583 118.637 45.3147 118.452 45.224C118.305 45.1509 118.173 45.0351 118.065 44.8855C117.957 44.7358 117.878 44.5563 117.832 44.3605C117.783 44.16 117.758 43.9505 117.758 43.74V41.0195H118.071L118.067 41.0186Z" fill="#134780"/>
<path d="M125.854 41.0186V41.3642H124.712V45.2686H124.396V41.3642H123.258V41.0186H125.854Z" fill="#134780"/>
<path d="M129.162 41.0186V45.2677H128.852V41.0186H129.162Z" fill="#134780"/>
<path d="M132.44 42.3017C132.501 42.0452 132.6 41.8061 132.73 41.5973C132.862 41.3903 133.026 41.2232 133.213 41.108C133.427 40.9828 133.66 40.9217 133.895 40.9293C134.126 40.9217 134.357 40.9829 134.568 41.108C134.755 41.222 134.921 41.3893 135.051 41.5973C135.182 41.8054 135.28 42.0448 135.34 42.3017C135.472 42.8488 135.472 43.435 135.34 43.9821C135.281 44.2386 135.182 44.4775 135.051 44.6848C134.919 44.8895 134.754 45.0544 134.568 45.1678C134.357 45.2923 134.126 45.3533 133.895 45.3463C133.66 45.3533 133.427 45.2923 133.213 45.1678C133.027 45.0537 132.862 44.8889 132.73 44.6848C132.599 44.4767 132.501 44.2382 132.44 43.9821C132.312 43.4343 132.312 42.8494 132.44 42.3017ZM132.728 43.824C132.773 44.04 132.848 44.2436 132.949 44.4249C133.05 44.6031 133.182 44.7486 133.333 44.8499C133.581 45.0238 133.87 45.0765 134.146 44.9985C134.421 44.9206 134.666 44.7169 134.835 44.4249C134.935 44.2427 135.009 44.0393 135.054 43.824C135.102 43.6018 135.125 43.3723 135.123 43.1418C135.125 42.9106 135.102 42.6801 135.054 42.4571C135.009 42.2424 134.935 42.0397 134.835 41.858C134.735 41.681 134.605 41.5355 134.454 41.432C134.279 41.3265 134.088 41.2718 133.894 41.2718C133.7 41.2718 133.509 41.3265 133.333 41.432C133.181 41.533 133.049 41.6788 132.949 41.858C132.848 42.0388 132.773 42.2417 132.728 42.4571C132.633 42.9044 132.633 43.3766 132.728 43.824Z" fill="#134780"/>
<path d="M138.936 41.0186L140.85 44.6132H140.858V41.0186H141.171V45.2677H140.826L138.911 41.673H138.903V45.2677H138.59V41.0186H138.936Z" fill="#134780"/>
<path d="M144.725 44.4162C144.776 44.5573 144.855 44.6787 144.954 44.7679C145.057 44.8588 145.173 44.9222 145.294 44.9546C145.433 44.9924 145.575 45.0116 145.716 45.0117C145.811 45.0098 145.905 44.9932 145.997 44.9626C146.097 44.9334 146.194 44.8821 146.282 44.8108C146.368 44.7423 146.442 44.651 146.5 44.5429C146.56 44.4256 146.59 44.2876 146.586 44.1474C146.589 44.0379 146.566 43.9299 146.522 43.8367C146.481 43.7499 146.428 43.6744 146.364 43.6144C146.295 43.5546 146.221 43.5059 146.143 43.4698C146.067 43.4341 145.988 43.4028 145.912 43.3804L145.179 43.1501C145.085 43.1182 144.994 43.0783 144.904 43.0304C144.816 42.9855 144.735 42.9208 144.664 42.8394C144.596 42.7573 144.54 42.6583 144.501 42.5483C144.458 42.414 144.437 42.2691 144.44 42.1233C144.441 42.0002 144.456 41.8781 144.485 41.7608C144.52 41.6154 144.578 41.4814 144.656 41.3679C144.755 41.2329 144.875 41.1262 145.007 41.0546C145.186 40.9624 145.377 40.9193 145.569 40.9278C145.726 40.9256 145.883 40.9539 146.034 41.0117C146.175 41.0625 146.307 41.1473 146.423 41.2617C146.532 41.374 146.621 41.5153 146.684 41.676C146.753 41.8533 146.787 42.0499 146.783 42.2483H146.471C146.469 42.107 146.443 41.9679 146.394 41.8416C146.345 41.7152 146.275 41.6049 146.188 41.5189C146.105 41.4356 146.01 41.3732 145.909 41.3349C145.8 41.2922 145.687 41.2712 145.573 41.2724C145.469 41.2721 145.365 41.2871 145.263 41.3171C145.17 41.3426 145.082 41.3915 145.003 41.4608C144.927 41.5263 144.864 41.6148 144.82 41.7189C144.772 41.8425 144.748 41.9801 144.751 42.1189C144.751 42.2074 144.764 42.295 144.792 42.376C144.817 42.4485 144.854 42.5132 144.901 42.5653C144.947 42.6168 144.999 42.6583 145.056 42.6885C145.118 42.7219 145.183 42.7479 145.249 42.7662L146.048 43.0224C146.161 43.0592 146.271 43.1082 146.378 43.1689C146.476 43.2226 146.568 43.2948 146.65 43.3831C146.728 43.4688 146.791 43.5754 146.833 43.6956C146.882 43.8358 146.906 43.9884 146.902 44.1421C146.901 44.2054 146.896 44.2687 146.889 44.3314C146.879 44.4187 146.86 44.5039 146.833 44.5849C146.801 44.6808 146.759 44.7708 146.709 44.8528C146.647 44.9525 146.573 45.0367 146.487 45.101C146.38 45.1827 146.264 45.2429 146.142 45.2796C145.979 45.3295 145.812 45.3529 145.644 45.3492C145.463 45.3496 145.283 45.3196 145.109 45.2599C144.954 45.2084 144.81 45.1174 144.683 44.9921C144.567 44.8701 144.476 44.7131 144.416 44.5349C144.35 44.3209 144.322 44.09 144.335 43.8599H144.648C144.641 44.0488 144.668 44.2372 144.727 44.4099L144.725 44.4162Z" fill="#134780"/>
<path d="M56.5372 10.0152V34.4615L41.402 15.299V34.2839H39.5586V9.55176L54.6952 29.0322V10.0143L56.5372 10.0152Z" fill="#134780"/>
<path d="M79.4512 13.3057C80.3622 14.4432 81.0819 15.8122 81.5643 17.3267C82.0475 18.8412 82.2839 20.4686 82.2582 22.1067C82.2614 24.1569 81.8731 26.1764 81.1285 27.9858C80.3843 29.7953 79.3063 31.3389 77.9904 32.4795C76.6745 33.6201 75.1614 34.3224 73.5856 34.5243C72.0096 34.726 70.4196 34.4209 68.9566 33.6362C67.4937 32.8514 66.203 31.6111 65.1991 30.0254C64.1952 28.4398 63.5093 26.5578 63.2022 24.5466C62.8951 22.5353 62.9762 20.457 63.4384 18.4961C63.9006 16.5351 64.7297 14.7523 65.8519 13.3057C66.7441 12.148 67.8039 11.2294 68.9707 10.6027C70.1375 9.97592 71.3883 9.65332 72.6515 9.65332C73.9148 9.65332 75.1656 9.97592 76.3324 10.6027C77.4992 11.2294 78.5591 12.148 79.4512 13.3057ZM78.1546 29.2487C79.6118 27.3515 80.4298 24.7848 80.4298 22.1094C80.4298 19.4339 79.6118 16.8672 78.1546 14.9701C77.0648 13.5581 75.6758 12.5964 74.1636 12.2067C72.6514 11.817 71.0839 12.0168 69.6594 12.7808C68.235 13.5449 67.0176 14.8388 66.1613 16.4989C65.305 18.1589 64.8484 20.1105 64.8491 22.1067C64.8514 24.1011 65.3097 26.05 66.1662 27.7077C67.0228 29.3654 68.2393 30.6577 69.6623 31.4217C71.0854 32.1855 72.6512 32.387 74.1625 32.0004C75.6738 31.6139 77.0629 30.6557 78.1546 29.2487Z" fill="#134780"/>
<path d="M85.4453 10.0156H87.5036L95.4481 29.4942L103.465 10.0156H105.473L96.6156 31.8407V31.8585L95.4481 34.6977L94.3555 31.9987L85.4453 10.0156Z" fill="#134780"/>
<path d="M125.141 34.3117H123.082L115.142 14.8349L107.123 34.3117H105.113L113.972 12.4831V12.4653L115.144 9.63672L116.239 12.3358L125.145 34.3108L125.141 34.3117Z" fill="#134780"/>
<path d="M145.073 27.4092C144.369 28.9105 143.379 30.1523 142.198 31.0154C141.017 31.8786 139.684 32.3339 138.327 32.3377C137.289 32.3453 136.261 32.0864 135.301 31.5758C134.341 31.0652 133.468 30.3134 132.734 29.3635C132 28.4136 131.419 27.2847 131.024 26.0421C130.629 24.7995 130.429 23.4679 130.435 22.1243C130.436 20.2284 130.844 18.3702 131.614 16.7579C132.385 15.1457 133.487 13.843 134.797 12.9959C136.107 12.1487 137.574 11.7905 139.032 11.9615C140.491 12.1324 141.884 12.8257 143.056 13.9637C143.86 14.7525 144.541 15.735 145.058 16.8574H147.031C146.104 14.2958 144.529 12.2199 142.567 10.9718C140.605 9.72381 138.374 9.37801 136.24 9.99139C134.106 10.6048 132.197 12.1408 130.828 14.3464C129.459 16.5519 128.711 19.2955 128.707 22.1252C128.706 24.4502 129.209 26.729 130.157 28.7034C131.105 30.6776 132.462 32.2687 134.072 33.2961C135.684 34.3234 137.485 34.7461 139.272 34.5161C141.058 34.2861 142.761 33.4127 144.184 31.9949C145.404 30.7884 146.379 29.2146 147.024 27.41L145.073 27.4092Z" fill="#134780"/>
<path d="M152.622 4.64844C153.243 4.64826 153.85 4.88633 154.366 5.33255C154.883 5.77878 155.285 6.41313 155.523 7.15539C155.76 7.89766 155.822 8.71451 155.702 9.5027C155.581 10.2909 155.282 11.015 154.844 11.5836C154.405 12.152 153.846 12.5394 153.238 12.6967C152.629 12.8539 151.998 12.774 151.424 12.467C150.85 12.16 150.36 11.6398 150.015 10.972C149.669 10.3042 149.485 9.51895 149.484 8.7154C149.484 7.6374 149.815 6.60335 150.403 5.84068C150.991 5.078 151.79 4.64915 152.622 4.64844ZM152.622 12.1484C153.147 12.1488 153.661 11.9476 154.098 11.5702C154.534 11.1929 154.875 10.6564 155.076 10.0285C155.277 9.40058 155.33 8.70954 155.228 8.04272C155.126 7.37589 154.874 6.76321 154.503 6.28215C154.132 5.80108 153.659 5.47324 153.144 5.34005C152.629 5.20686 152.095 5.27432 151.61 5.53391C151.125 5.79348 150.71 6.23351 150.418 6.79837C150.125 7.36324 149.969 8.02756 149.968 8.70736C149.968 9.15914 150.037 9.60655 150.17 10.0241C150.304 10.4416 150.499 10.8211 150.746 11.1407C150.992 11.4604 151.285 11.7141 151.607 11.8873C151.929 12.0605 152.275 12.1499 152.624 12.1502L152.622 12.1484Z" fill="#16477F"/>
<path d="M153.425 9.27326L153.831 10.5858H153.785C153.654 10.5858 153.523 10.5858 153.392 10.5858C153.379 10.5883 153.365 10.5844 153.354 10.5748C153.344 10.5653 153.336 10.5507 153.333 10.534C153.214 10.1474 153.095 9.76256 152.976 9.37326C152.968 9.34826 152.961 9.33131 152.935 9.33131C152.678 9.33131 152.422 9.33131 152.164 9.33131H152.143V10.5733H151.66V6.82327H151.702C152.166 6.82327 152.63 6.82327 153.094 6.82327C153.283 6.82178 153.469 6.89235 153.628 7.02627C153.788 7.16017 153.914 7.35156 153.989 7.57675C154.066 7.80196 154.089 8.05112 154.057 8.29343C154.026 8.53575 153.939 8.76062 153.809 8.94023C153.714 9.0703 153.599 9.17128 153.47 9.23576L153.425 9.25898V9.27326ZM152.144 8.70898H152.159C152.483 8.70898 152.807 8.70898 153.131 8.70898C153.248 8.6921 153.357 8.62011 153.436 8.50664C153.515 8.39316 153.559 8.24608 153.56 8.0932C153.562 7.94033 153.519 7.79226 153.441 7.67705C153.364 7.56182 153.256 7.48741 153.139 7.46791C152.819 7.45898 152.497 7.46791 152.174 7.46791C152.164 7.46791 152.154 7.46791 152.142 7.46791V8.70898H152.144Z" fill="#16477F"/>
</g>
<path fill-rule="evenodd" clip-rule="evenodd" d="M3.59375 48.5345L13.5248 0.892578L23.4558 48.5345H3.59375Z" fill="url(#paint0_linear_2458_7715)"/>
<path fill-rule="evenodd" clip-rule="evenodd" d="M33.3855 0.892578L23.4545 48.5345L13.5234 0.892578H33.3855Z" fill="url(#paint1_linear_2458_7715)"/>
</g>
</g>
<defs>
<linearGradient id="paint0_linear_2458_7715" x1="19.9402" y1="29.4301" x2="14.0955" y2="29.7927" gradientUnits="userSpaceOnUse">
<stop stop-color="#002F36"/>
<stop offset="1" stop-color="#1B9A8F"/>
</linearGradient>
<linearGradient id="paint1_linear_2458_7715" x1="23.4545" y1="0.892578" x2="23.4545" y2="48.5345" gradientUnits="userSpaceOnUse">
<stop stop-color="#F48120"/>
<stop offset="1" stop-color="#FFD300"/>
</linearGradient>
<clipPath id="clip0_2458_7715">
<rect width="160" height="50" fill="white"/>
</clipPath>
</defs>
</svg>
